<?xml version="1.0" encoding="utf-8"?>
<!-- Generator: Adobe Illustrator 21.0.0, SVG Export Plug-In . SVG Version: 6.00 Build 0)  -->
<svg version="1.1" xmlns="http://www.w3.org/2000/svg" xmlns:xlink="http://www.w3.org/1999/xlink" x="0px" y="0px"
	 viewBox="0 0 4000 2153" style="enable-background:new 0 0 4000 2153;" xml:space="preserve">
<style type="text/css">
	.st0{display:none;}
	.st1{display:inline;fill:url(#SVGID_1_);}
	.st2{display:inline;}
	.st3{clip-path:url(#SVGID_2_);}
	.st4{fill:none;stroke:#208AAD;stroke-width:6;stroke-miterlimit:10;}
	.st5{fill:none;stroke:#000000;stroke-width:5;stroke-miterlimit:10;}
	.st6{fill:url(#SVGID_4_);}
	.st7{clip-path:url(#SVGID_6_);}
	.st8{fill:#46508C;}
	.st9{opacity:0.29;fill:#46508C;}
	.st10{fill:#B5C3C2;}
	.st11{fill:#242849;}
	.st12{fill:#95A9A7;}
	.st13{fill:#0E101C;}
	.st14{opacity:0.29;fill:#0E101C;}
</style>
<g id="Layer_2" class="st0">
	<radialGradient id="SVGID_1_" cx="1965.4542" cy="372.6956" r="2100.623" gradientUnits="userSpaceOnUse">
		<stop  offset="0" style="stop-color:#208AAD"/>
		<stop  offset="0.3094" style="stop-color:#10458A"/>
		<stop  offset="1" style="stop-color:#071E76"/>
	</radialGradient>
	<path class="st1" d="M3643.8,1524.1c-42.3,195.5-154.9,374.4-345.3,451.7c-199.2,80.9-405.8,22.1-578.6-93.5
		c-140.5-93.9-272.4-214.4-371.3-354.2c-14.6-20.7-26.7-43-36.8-66.2c-15-34.8-35-67-59.2-95.6c-70-83-174.5-136-291.4-136.9
		c-0.9,0-1.8,0-2.8,0c-112,0-212.8,47.9-283,124.3c-28.6,31.1-52.2,66.9-69.3,106.1c-8.5,19.4-18.4,38.3-30.1,55.9
		c-10.6,15.9-21.8,31.6-33.8,47.1c-130,167.7-313,328.7-511.5,407.8c-192.1,76.6-408.3,50.9-565.6-88.7
		c-137.3-121.8-192.9-309.8-211.5-486.6c-16-152.4-14.7-324.9,67.9-459.8C429.4,759.4,650.1,721.8,838,692.2
		c130.9-20.7,251.8-20.4,384.2-20.4h1407.4c159.8,0,308.5-1.6,466.3,23.2c204.9,32.1,433.7,83.8,525.2,292.4
		C3693.8,1153.3,3675.2,1350.6,3643.8,1524.1z"/>
	<g class="st2">
		<defs>
			<path id="SVGID_5_" d="M3643.8,1524.1c-42.3,195.5-154.9,374.4-345.3,451.7c-199.2,80.9-405.8,22.1-578.6-93.5
				c-140.5-93.9-272.4-214.4-371.3-354.2c-14.6-20.7-26.7-43-36.8-66.2c-15-34.8-35-67-59.2-95.6c-70-83-174.5-136-291.4-136.9
				c-0.9,0-1.8,0-2.8,0c-112,0-212.8,47.9-283,124.3c-28.6,31.1-52.2,66.9-69.3,106.1c-8.5,19.4-18.4,38.3-30.1,55.9
				c-10.6,15.9-21.8,31.6-33.8,47.1c-130,167.7-313,328.7-511.5,407.8c-192.1,76.6-408.3,50.9-565.6-88.7
				c-137.3-121.8-192.9-309.8-211.5-486.6c-16-152.4-14.7-324.9,67.9-459.8C429.4,759.4,650.1,721.8,838,692.2
				c130.9-20.7,251.8-20.4,384.2-20.4h1407.4c159.8,0,308.5-1.6,466.3,23.2c204.9,32.1,433.7,83.8,525.2,292.4
				C3693.8,1153.3,3675.2,1350.6,3643.8,1524.1z"/>
		</defs>
		<clipPath id="SVGID_2_">
			<use xlink:href="#SVGID_5_"  style="overflow:visible;"/>
		</clipPath>
		<g class="st3">
			<rect x="200.7" y="-1153.2" class="st4" width="3515.7" height="3515.7"/>
			<rect x="728" y="-625.8" class="st4" width="2461" height="2461"/>
			<rect x="1097.2" y="-256.7" class="st4" width="1722.7" height="1722.7"/>
			<rect x="1355.6" y="1.7" class="st4" width="1205.9" height="1205.9"/>
			<rect x="1536.5" y="182.6" class="st4" width="844.1" height="844.1"/>
			<polyline class="st4" points="1958.5,2362.5 1958.5,1835.2 1958.5,1466 1958.5,1207.6 1958.5,1026.7 1958.5,604.7 1958.5,182.6 
				1958.5,1.7 1958.5,-256.7 1958.5,-625.8 1958.5,-1153.2 			"/>
			<polyline class="st4" points="1958.5,2362.5 1958.5,1835.2 1958.5,1466 1958.5,1207.6 1958.5,1026.7 1958.5,604.7 1958.5,182.6 
				1958.5,1.7 1958.5,-256.7 1958.5,-625.8 1958.5,-1153.2 			"/>
			<polyline class="st4" points="2429.5,2362.5 2288.3,1835.2 2189.3,1466 2120.1,1207.6 2071.6,1026.7 1958.5,604.7 1845.4,182.6 
				1797,1.7 1727.7,-256.7 1628.8,-625.8 1487.5,-1153.2 			"/>
			<polyline class="st4" points="2973.4,2362.5 2668.9,1835.2 2455.9,1466 2306.6,1207.6 2202.2,1026.7 1958.5,604.7 1714.9,182.6 
				1610.4,1.7 1461.2,-256.7 1248.1,-625.8 943.7,-1153.2 			"/>
			<polyline class="st4" points="3716.4,2362.5 3189,1835.2 2819.9,1466 2561.5,1207.6 2380.6,1026.7 1958.5,604.7 1536.5,182.6 
				1355.6,1.7 1097.2,-256.7 728,-625.8 200.7,-1153.2 			"/>
			<polyline class="st4" points="3716.4,1619.5 3189,1315.1 2819.9,1102 2561.5,952.8 2380.6,848.3 1958.5,604.7 1536.5,361 
				1355.6,256.6 1097.2,107.3 728,-105.7 200.7,-410.2 			"/>
			<polyline class="st4" points="3716.4,1075.7 3189,934.4 2819.9,835.5 2561.5,766.2 2380.6,717.8 1958.5,604.7 1536.5,491.6 
				1355.6,443.1 1097.2,373.9 728,274.9 200.7,133.7 			"/>
			<polyline class="st4" points="3716.4,604.7 3189,604.7 2819.9,604.7 2561.5,604.7 2380.6,604.7 1958.5,604.7 1536.5,604.7 
				1355.6,604.7 1097.2,604.7 728,604.7 200.7,604.7 			"/>
			<polyline class="st4" points="3716.4,133.7 3189,274.9 2819.9,373.9 2561.5,443.1 2380.6,491.6 1958.5,604.7 1536.5,717.8 
				1355.6,766.2 1097.2,835.5 728,934.4 200.7,1075.7 			"/>
			<polyline class="st4" points="3716.4,-410.2 3189,-105.7 2819.9,107.3 2561.5,256.6 2380.6,361 1958.5,604.7 1536.5,848.3 
				1355.6,952.8 1097.2,1102 728,1315.1 200.7,1619.5 			"/>
			<polyline class="st4" points="3716.4,-1153.2 3189,-625.8 2819.9,-256.7 2561.5,1.7 2380.6,182.6 1958.5,604.7 1536.5,1026.7 
				1355.6,1207.6 1097.2,1466 728,1835.2 200.7,2362.5 			"/>
			<polyline class="st4" points="2973.4,-1153.2 2668.9,-625.8 2455.9,-256.7 2306.6,1.7 2202.2,182.6 1958.5,604.7 1714.9,1026.7 
				1610.4,1207.6 1461.2,1466 1248.1,1835.2 943.7,2362.5 			"/>
			<polyline class="st4" points="2429.5,-1153.2 2288.3,-625.8 2189.3,-256.7 2120.1,1.7 2071.6,182.6 1958.5,604.7 1845.4,1026.7 
				1797,1207.6 1727.7,1466 1628.8,1835.2 1487.5,2362.5 			"/>
		</g>
	</g>
</g>
<g id="Layer_4">
	<path class="st5" d="M2238.4,1339.3"/>
	<linearGradient id="SVGID_4_" gradientUnits="userSpaceOnUse" x1="245.8586" y1="1349.5667" x2="3665.854" y2="1349.5667">
		<stop  offset="0" style="stop-color:#B04C63"/>
		<stop  offset="1" style="stop-color:#611A2C"/>
	</linearGradient>
	<path class="st6" d="M3638.2,1530.8c-42.2,195.2-154.6,373.7-344.7,451c-198.9,80.8-405.1,22-577.6-93.3
		c-140.3-93.8-272-214.1-370.6-353.6c-14.6-20.6-26.7-42.9-36.7-66.1c-15-34.8-35-66.9-59-95.5c-69.9-82.9-174.2-135.8-290.9-136.6
		c-0.9,0-1.8,0-2.7,0c-111.8,0-212.4,47.8-282.6,124c-28.6,31-52.1,66.8-69.2,106c-8.5,19.4-18.3,38.2-30.1,55.8
		c-10.6,15.9-21.7,31.6-33.7,47c-129.8,167.4-312.4,328.1-510.6,407.1c-191.7,76.4-407.6,50.9-564.6-88.5
		c-137.1-121.6-192.6-309.2-211.2-485.7c-16-152.1-14.7-324.3,67.8-459.1c107.6-175.8,328-213.4,515.5-243
		c130.7-20.6,251.3-20.4,383.6-20.4h1405c159.5,0,307.9-1.6,465.5,23.1c204.6,32,433,83.7,524.3,291.9
		C3688.1,1160.7,3669.5,1357.6,3638.2,1530.8z"/>
	<g>
		<defs>
			<path id="SVGID_3_" d="M3665.9,1236.9h-0.4c3.1,99.2-10.2,200.1-27.2,294.1c-42.2,195.2-154.6,373.8-344.8,450.9
				c-198.9,80.8-405.1,22-577.6-93.3c-140.3-93.8-272-214.1-370.6-353.6c-14.6-20.6-26.7-42.9-36.7-66.1c-15-34.8-35-66.9-59-95.5
				c-69.9-82.9-174.2-135.8-290.9-136.6h-2.8c-111.8,0-212.4,47.8-282.6,124c-28.5,31-52.1,66.8-69.2,105.9
				c-8.5,19.4-18.3,38.2-30.1,55.9c-10.6,15.9-21.7,31.6-33.7,47c-129.8,167.4-312.5,328.1-510.6,407.1
				c-191.7,76.4-407.6,50.9-564.6-88.5c-137.1-121.6-192.6-309.2-211.2-485.7c-5.6-53.6-9.1-109.7-7.7-165.7h-0.3V129.8h3420V1236.9
				z"/>
		</defs>
		<clipPath id="SVGID_6_">
			<use xlink:href="#SVGID_3_"  style="overflow:visible;"/>
		</clipPath>
		<g class="st7">
			<g>
				<g>
					<rect x="1452.6" y="687.6" class="st8" width="270" height="1074.8"/>
					<rect x="1496.7" y="610.5" class="st8" width="181.8" height="451.7"/>
					<rect x="1537.2" y="561.6" class="st8" width="100.8" height="250.5"/>
					<polygon class="st8" points="1622,690.4 1553.3,690.4 1553.3,519.6 1578.1,519.6 1602.6,519.6 1622,519.6 					"/>
					<g>
						<polygon class="st8" points="1583.1,616 1575.7,616 1575.7,445.3 1578.3,445.3 1581,445.3 1583.1,445.3 						"/>
						<polygon class="st8" points="1599.6,557 1592.2,557 1592.2,386.3 1594.8,386.3 1597.5,386.3 1599.6,386.3 						"/>
					</g>
					<rect x="1445.4" y="684.8" class="st8" width="284.4" height="11.4"/>
					<rect x="1490.1" y="605" class="st8" width="195.1" height="11"/>
					<rect x="1529.9" y="557" class="st8" width="112.4" height="8.5"/>
					<rect x="1513.5" y="628.8" class="st9" width="8.5" height="47.3"/>
					<rect x="1536.8" y="628.8" class="st9" width="8.5" height="47.3"/>
					<rect x="1560.2" y="628.8" class="st9" width="8.5" height="47.3"/>
					<rect x="1583.6" y="628.8" class="st9" width="8.5" height="47.3"/>
					<rect x="1607" y="628.8" class="st9" width="8.5" height="47.3"/>
					<rect x="1630.4" y="628.8" class="st9" width="8.5" height="47.3"/>
					<rect x="1653.8" y="628.8" class="st9" width="8.5" height="47.3"/>
					<rect x="1476.3" y="730.4" class="st8" width="20.4" height="56.1"/>
					<rect x="1516.8" y="730.4" class="st9" width="20.4" height="56.1"/>
					<rect x="1557.2" y="730.4" class="st8" width="20.4" height="56.1"/>
					<rect x="1597.6" y="730.4" class="st8" width="20.4" height="56.1"/>
					<rect x="1638.1" y="730.4" class="st8" width="20.4" height="56.1"/>
					<rect x="1678.5" y="730.4" class="st8" width="20.4" height="56.1"/>
					<rect x="1476.3" y="817.9" class="st8" width="20.4" height="56.1"/>
					<rect x="1516.8" y="817.9" class="st8" width="20.4" height="56.1"/>
					<rect x="1557.2" y="817.9" class="st8" width="20.4" height="56.1"/>
					<rect x="1597.6" y="817.9" class="st9" width="20.4" height="56.1"/>
					<rect x="1638.1" y="817.9" class="st8" width="20.4" height="56.1"/>
					<rect x="1678.5" y="817.9" class="st8" width="20.4" height="56.1"/>
					<rect x="1476.3" y="905.5" class="st8" width="20.4" height="56.1"/>
					<rect x="1516.8" y="905.5" class="st8" width="20.4" height="56.1"/>
					<rect x="1557.2" y="905.5" class="st8" width="20.4" height="56.1"/>
					<rect x="1597.6" y="905.5" class="st8" width="20.4" height="56.1"/>
					<rect x="1638.1" y="905.5" class="st9" width="20.4" height="56.1"/>
					<rect x="1678.5" y="905.5" class="st9" width="20.4" height="56.1"/>
					<rect x="1476.3" y="993" class="st9" width="20.4" height="56.2"/>
					<rect x="1516.8" y="993" class="st8" width="20.4" height="56.2"/>
					<rect x="1557.2" y="993" class="st8" width="20.4" height="56.2"/>
					<rect x="1597.6" y="993" class="st8" width="20.4" height="56.2"/>
					<rect x="1638.1" y="993" class="st8" width="20.4" height="56.2"/>
					<rect x="1678.5" y="993" class="st8" width="20.4" height="56.2"/>
					<rect x="1476.3" y="1080.5" class="st8" width="20.4" height="56.2"/>
					<rect x="1516.8" y="1080.5" class="st9" width="20.4" height="56.2"/>
					<rect x="1557.2" y="1080.5" class="st8" width="20.4" height="56.2"/>
					<rect x="1597.6" y="1080.5" class="st9" width="20.4" height="56.2"/>
					<rect x="1638.1" y="1080.5" class="st8" width="20.4" height="56.2"/>
					<rect x="1678.5" y="1080.5" class="st8" width="20.4" height="56.2"/>
					<rect x="1476.3" y="1168" class="st8" width="20.4" height="56.2"/>
					<rect x="1516.8" y="1168" class="st8" width="20.4" height="56.2"/>
					<rect x="1557.2" y="1168" class="st8" width="20.4" height="56.2"/>
					<rect x="1597.6" y="1168" class="st8" width="20.4" height="56.2"/>
					<rect x="1638.1" y="1168" class="st8" width="20.4" height="56.2"/>
					<rect x="1678.5" y="1168" class="st9" width="20.4" height="56.2"/>
					<rect x="1476.3" y="1255.6" class="st8" width="20.4" height="56.1"/>
					<rect x="1516.8" y="1255.6" class="st9" width="20.4" height="56.1"/>
					<rect x="1557.2" y="1255.6" class="st9" width="20.4" height="56.1"/>
					<rect x="1597.6" y="1255.6" class="st8" width="20.4" height="56.1"/>
					<rect x="1638.1" y="1255.6" class="st8" width="20.4" height="56.1"/>
					<rect x="1678.5" y="1255.6" class="st8" width="20.4" height="56.1"/>
					<rect x="1476.3" y="1343.1" class="st8" width="20.4" height="56.1"/>
					<rect x="1516.8" y="1343.1" class="st8" width="20.4" height="56.1"/>
					<rect x="1557.2" y="1343.1" class="st8" width="20.4" height="56.1"/>
					<rect x="1597.6" y="1343.1" class="st8" width="20.4" height="56.1"/>
					<rect x="1638.1" y="1343.1" class="st9" width="20.4" height="56.1"/>
					<rect x="1678.5" y="1343.1" class="st8" width="20.4" height="56.1"/>
					<rect x="1476.3" y="1430.6" class="st8" width="20.4" height="56.1"/>
					<rect x="1516.8" y="1430.6" class="st9" width="20.4" height="56.1"/>
					<rect x="1557.2" y="1430.6" class="st8" width="20.4" height="56.1"/>
					<rect x="1597.6" y="1430.6" class="st8" width="20.4" height="56.1"/>
					<rect x="1638.1" y="1430.6" class="st8" width="20.4" height="56.1"/>
					<rect x="1678.5" y="1430.6" class="st8" width="20.4" height="56.1"/>
					<rect x="1476.3" y="1518.1" class="st8" width="20.4" height="56.1"/>
					<rect x="1516.8" y="1518.1" class="st8" width="20.4" height="56.1"/>
					<rect x="1557.2" y="1518.1" class="st8" width="20.4" height="56.1"/>
					<rect x="1597.6" y="1518.1" class="st9" width="20.4" height="56.1"/>
					<rect x="1638.1" y="1518.1" class="st8" width="20.4" height="56.1"/>
					<rect x="1678.5" y="1518.1" class="st9" width="20.4" height="56.1"/>
					<rect x="1476.3" y="1605.7" class="st9" width="20.4" height="56.1"/>
					<rect x="1516.8" y="1605.7" class="st8" width="20.4" height="56.1"/>
					<rect x="1557.2" y="1605.7" class="st9" width="20.4" height="56.1"/>
					<rect x="1597.6" y="1605.7" class="st8" width="20.4" height="56.1"/>
					<rect x="1638.1" y="1605.7" class="st8" width="20.4" height="56.1"/>
					<rect x="1678.5" y="1605.7" class="st8" width="20.4" height="56.1"/>
				</g>
				<g>
					<rect x="668.4" y="728.5" class="st8" width="434.1" height="905.4"/>
					<rect x="656.1" y="712.9" class="st8" width="458.7" height="25.6"/>
					<rect x="683" y="680.1" class="st8" width="404.9" height="121.6"/>
					<rect x="714" y="630.3" class="st8" width="160.3" height="132.9"/>
					<polygon class="st8" points="806.8,667.8 714,667.8 714,597.8 780.5,597.8 					"/>
					<rect x="751.4" y="539.8" class="st8" width="9" height="155.8"/>
					<circle class="st8" cx="755.9" cy="531.7" r="8.1"/>
				</g>
				<polygon class="st10" points="4697,1702.8 4221.9,1702.8 4162.6,371.6 4697,482.5 				"/>
				<polygon class="st8" points="2624,942.6 2624,497.5 2549.5,497.5 2549.5,378.3 2522.9,378.3 2522.9,203.4 2376.2,203.4 
					2376.2,74.9 2363.2,74.9 2363.2,203.4 2334.4,203.4 2334.4,42.6 2321.4,42.6 2321.4,203.4 2228.6,203.4 2228.6,497.5 
					2180.7,497.5 2180.7,942.6 2139.7,942.6 2139.7,1753.2 2652.9,1753.2 2652.9,942.6 				"/>
			</g>
			<rect x="61.7" y="1686.3" class="st10" width="5677.2" height="135"/>
			<polygon class="st11" points="3403.5,1788.3 3152.1,1788.3 3250.1,1284.9 3403.5,1284.9 			"/>
			<g>
				<rect x="-142" y="1807.9" class="st11" width="5960.8" height="212.9"/>
				<polygon class="st11" points="3197.5,856.7 3197.5,633.6 3116.8,633.6 3116.8,548.7 3073.6,548.7 3073.6,477.4 3058.4,477.4 
					3058.4,355.1 3054.5,355.1 3054.5,477.4 3039.4,477.4 3039.4,548.7 2996.2,548.7 2996.2,633.6 2916.1,633.6 2916.1,856.7 
					2899.4,856.7 2899.4,1261.7 2775.2,1261.7 2775.2,1723.4 2899.4,1723.4 3023.6,1723.4 3213.5,1723.4 3213.5,856.7 				"/>
				<polygon class="st11" points="3661.4,1113 3270.7,1113 3270.7,1120.1 3288.4,1120.1 3288.4,1780.7 3643.7,1780.7 3643.7,1120.1 
					3661.4,1120.1 				"/>
				<rect x="1533.4" y="1277.5" class="st11" width="346.4" height="550.3"/>
				<rect x="885.4" y="1559.5" class="st11" width="595.8" height="268.4"/>
				<rect x="1204.8" y="959.9" class="st11" width="130.8" height="659"/>
				<rect x="1233.6" y="784.1" class="st11" width="6.8" height="358.4"/>
				<rect x="1255.7" y="811.3" class="st11" width="6.8" height="358.4"/>
				<rect x="1214.8" y="919.1" class="st11" width="79.9" height="88.3"/>
				<rect x="1457.8" y="1376" class="st11" width="227.6" height="451.8"/>
				<rect x="1935.9" y="897.9" class="st11" width="427.3" height="930"/>
				<rect x="1977.9" y="865.9" class="st11" width="343.3" height="154.9"/>
				<rect x="1902.8" y="917.3" class="st11" width="493.5" height="10.9"/>
				<rect x="1858.5" y="1358.2" class="st11" width="201.3" height="469.7"/>
				<rect x="416.6" y="1340.4" class="st11" width="231" height="487.5"/>
				<g>
					<rect x="491.4" y="1207.9" class="st11" width="460.3" height="620"/>
					<rect x="464.5" y="1184.1" class="st11" width="499.1" height="23.8"/>
					<rect x="511.7" y="1119.5" class="st11" width="202.3" height="125.7"/>
					<rect x="780.1" y="1119.5" class="st11" width="34" height="76.4"/>
					<rect x="848.1" y="1119.5" class="st11" width="37.4" height="76.4"/>
				</g>
				<rect x="290.9" y="1639.3" class="st11" width="241.2" height="188.5"/>
				<rect x="199.8" y="1559.5" class="st11" width="114.2" height="268.4"/>
				<rect x="61.7" y="1733.6" class="st11" width="195.2" height="94.3"/>
				<rect x="2321.2" y="1618.9" class="st11" width="2405.2" height="208.9"/>
				<path class="st12" d="M4534.4,1040.6c-15.1,0-27.6,11.7-28.8,26.5l-33.9-1.1c0.1-3.3,0.1-6.6,0.1-10c0-42.1-7.3-83.1-21.2-121.6
					l28.3-10.4c4.4,10.3,14.6,17.4,26.5,17.4c16,0,28.9-12.9,28.9-28.9c0-16-12.9-28.9-28.9-28.9s-28.9,12.9-28.9,28.9
					c0,2.9,0.4,5.8,1.3,8.5l-28.3,10.4c-16.1-43.2-40.7-83.1-72.9-117.7l22.1-20.7c5.2,5,12.2,8,20,8c16,0,28.9-12.9,28.9-28.9
					c0-16-12.9-28.9-28.9-28.9c-16,0-28.9,12.9-28.9,28.9c0,7.1,2.5,13.5,6.8,18.6l-22.1,20.7c-2.3-2.4-4.6-4.8-6.9-7.1
					c-33.5-33.5-72.5-59.5-115-77.2l12.2-29.6c2.8,0.9,5.7,1.4,8.8,1.4c16,0,28.9-12.9,28.9-28.9c0-16-12.9-28.9-28.9-28.9
					s-28.9,12.9-28.9,28.9c0,11.8,7,21.9,17.2,26.4l-12.1,29.6c-38-15.4-78.7-24.2-120.7-25.7l1.3-40.5c0.3,0,0.6,0,0.9,0
					c16,0,28.9-12.9,28.9-28.9c0-16-12.9-28.9-28.9-28.9c-16,0-28.9,12.9-28.9,28.9c0,14.6,10.8,26.6,24.8,28.6l-1.3,40.7
					c-3.3-0.1-6.6-0.1-10-0.1c-40.4,0-79.8,6.7-116.9,19.6l-11.7-33.1c10.5-4.3,17.9-14.7,17.9-26.7c0-16-12.9-28.9-28.9-28.9
					c-16,0-28.9,12.9-28.9,28.9c0,16,12.9,28.9,28.9,28.9c2.8,0,5.4-0.4,8-1.1l11.7,33.1c-45,16.1-86.6,41.2-122.4,74.6l-21.1-22.5
					c4.7-5.1,7.6-12,7.6-19.5c0-16-12.9-28.9-28.9-28.9c-16,0-28.9,12.9-28.9,28.9c0,16,12.9,28.9,28.9,28.9c7.3,0,13.9-2.7,19-7.1
					l21.1,22.5c-2.4,2.3-4.8,4.6-7.1,6.9c-29.8,29.8-53.7,64-71,101l-26.8-12.4c1-2.9,1.5-6,1.5-9.2c0-16-12.9-28.9-28.9-28.9
					s-28.9,12.9-28.9,28.9c0,16,12.9,28.9,28.9,28.9c11.6,0,21.6-6.8,26.2-16.7l26.7,12.3c-19.2,41.9-30,87.5-31.7,134.7l-34.5-1.1
					c-0.4-15.6-13.2-28.1-28.9-28.1c-16,0-28.9,12.9-28.9,28.9c0,16,12.9,28.9,28.9,28.9c15.2,0,27.6-11.7,28.8-26.5l34.4,1.1
					c-0.1,3.3-0.1,6.6-0.1,10c0,42.1,7.3,83.1,21.2,121.6l-28.3,10.4c-4.4-10.3-14.6-17.4-26.5-17.4c-16,0-28.9,12.9-28.9,28.9
					s12.9,28.9,28.9,28.9c16,0,28.9-12.9,28.9-28.9c0-2.9-0.4-5.8-1.3-8.5l28.3-10.4c16.1,43.2,40.7,83.1,72.9,117.7l-22.1,20.7
					c-5.2-5-12.2-8-20-8c-16,0-28.9,12.9-28.9,28.9c0,16,12.9,28.9,28.9,28.9c16,0,28.9-12.9,28.9-28.9c0-7.1-2.5-13.5-6.8-18.6
					l22.1-20.7c2.3,2.4,4.6,4.8,6.9,7.1c22.6,22.6,47.6,41.7,74.6,57.2l-174.3,321.2h-31.3v9.2h-15.3v18.2h796.3v-18.2h-15.3v-9.2
					h-31.3L4293,1365.1c23.2-13.4,45-29.4,65.1-48.1l28.2,30.1c-6.1,5.3-9.9,13.1-9.9,21.8c0,16,12.9,28.9,28.9,28.9
					c16,0,28.9-12.9,28.9-28.9c0-16-12.9-28.9-28.9-28.9c-6.1,0-11.8,1.9-16.5,5.2l-28.4-30.4c2.4-2.3,4.8-4.6,7.1-6.9
					c29.8-29.8,53.7-64,71-101l31.5,14.5c-0.6,2.3-0.9,4.6-0.9,7.1c0,16,12.9,28.9,28.9,28.9s28.9-12.9,28.9-28.9
					c0-16-12.9-28.9-28.9-28.9c-12.4,0-22.9,7.8-27.1,18.7l-31.1-14.3c19.2-41.9,30-87.5,31.7-134.7l33.9,1.1
					c0.4,15.6,13.2,28.1,28.9,28.1c16,0,28.9-12.9,28.9-28.9S4550.3,1040.6,4534.4,1040.6z M4462.2,1056c0,3.2,0,6.4-0.1,9.7
					l-99.7-3.2c0.1-2.1,0.1-4.3,0.1-6.4c0-29.4-5.2-57.6-14.6-83.7l93.8-34.5C4455.2,975.1,4462.2,1015,4462.2,1056z M4357.6,1062.3
					l-222.4-7.2c-0.1-1.5-0.3-2.9-0.7-4.2l208.9-76.9c9.3,25.6,14.3,53.3,14.3,82.1C4357.7,1058.1,4357.6,1060.2,4357.6,1062.3z
					 M3873.9,1049.7l222.4,7.2c0.1,1.5,0.3,2.9,0.7,4.2l-208.9,76.9c-9.3-25.6-14.3-53.3-14.3-82.1
					C3873.8,1053.9,3873.8,1051.8,3873.9,1049.7z M4130.9,1043.9l162.3-152.1c21.1,22.8,37.8,49.5,48.9,79.1l-208.9,76.9
					C4132.7,1046.4,4131.9,1045.1,4130.9,1043.9z M4128.8,1041.6c-1.3-1.1-2.7-2.1-4.2-2.9l84.5-205.9c31.2,13.1,59,32.5,82,56.7
					L4128.8,1041.6z M4121.6,1037.5c-1.2-0.4-2.4-0.6-3.6-0.8l7.2-222.4c28.5,1.1,55.8,7.2,81,17.3L4121.6,1037.5z M4114.7,1036.6
					c-1.4,0.1-2.7,0.3-3.9,0.6l-74-209.9c24.7-8.6,51.3-13.2,78.9-13.2c2.1,0,4.2,0,6.3,0.1L4114.7,1036.6z M4107.8,1038.3
					c-1.5,0.7-2.9,1.5-4.1,2.5l-152.1-162.3c23.6-21.8,51.5-39,82.2-50.1L4107.8,1038.3z M4101.3,1043c-1,1.1-1.8,2.2-2.5,3.5
					l-202-93.3c12.9-27.4,30.8-51.9,52.4-72.5L4101.3,1043z M4097.5,1049.3c-0.5,1.4-0.9,2.9-1,4.4l-222.4-7.2
					c1.2-32.1,8.8-62.7,21.4-90.5L4097.5,1049.3z M4098.1,1064.2c0.5,1.1,1.1,2.2,1.9,3.2l-1.3,2.4l-160.5,150.4
					c-21.1-22.8-37.8-49.5-48.9-79.1L4098.1,1064.2z M4093.8,1078.8L3993,1264.4c-19.5-11.5-37.2-25.6-52.7-41.9L4093.8,1078.8z
					 M4104.7,1072c0.7,0.5,1.4,0.9,2.1,1.3l-84.5,205.9c-8.1-3.4-16.1-7.3-23.7-11.5L4104.7,1072z M4109.8,1074.5
					c1.2,0.4,2.4,0.6,3.6,0.8l-7.2,222.4c-28.5-1.1-55.8-7.2-81-17.3L4109.8,1074.5z M4115.7,1297.9c-2.1,0-4.2,0-6.3-0.1l7.2-222.4
					c1.4-0.1,2.7-0.3,3.9-0.6l74,209.9C4169.9,1293.3,4143.3,1297.9,4115.7,1297.9z M4123.7,1073.7c1.1-0.5,2.1-1,3-1.7l106.1,195.6
					c-11.2,6.2-23,11.6-35.2,16L4123.7,1073.7z M4141.5,1085.9l138.4,147.7c-12.7,11.7-26.6,22.1-41.5,30.9L4141.5,1085.9z
					 M4135.5,1074.7l-4-7.4c0.4-0.6,0.8-1.2,1.2-1.8l202,93.3c-12.9,27.4-30.8,51.9-52.4,72.5L4135.5,1074.7z M4134,1062.7
					c0.5-1.4,0.9-2.9,1-4.4l222.4,7.2c-1.2,32.1-8.8,62.7-21.4,90.5L4134,1062.7z M4020.5,1283.6l-38,92.5
					c-11.6-4.8-22.9-10.3-33.9-16.3l47.7-87.9C4004.1,1276.2,4012.2,1280.1,4020.5,1283.6z M4023.5,1284.9
					c25.7,10.4,53.5,16.6,82.6,17.7l-3.2,99.7c-40.8-1.5-80.4-10-117.4-25L4023.5,1284.9z M4109.3,1302.7c2.1,0.1,4.3,0.1,6.4,0.1
					c28.2,0,55.3-4.8,80.5-13.5l33.2,94.3c-36.1,12.5-74.4,19-113.7,19c-3.2,0-6.4,0-9.7-0.1L4109.3,1302.7z M4199.3,1288.2
					c12.4-4.5,24.4-10,35.9-16.3l47.7,87.9c-16.2,8.9-33,16.5-50.3,22.7L4199.3,1288.2z M4440.5,934.7l-93.8,34.5
					c-11.4-30.1-28.4-57.5-49.9-80.7l72.9-68.3C4401,853.9,4424.8,892.7,4440.5,934.7z M4360.7,811c2.3,2.3,4.5,4.6,6.7,6.9
					l-72.9,68.3c-23.4-24.6-51.8-44.5-83.7-57.8l38-92.5C4290.2,753.1,4328.2,778.4,4360.7,811z M4245.9,734.7l-38,92.5
					c-25.7-10.4-53.5-16.6-82.6-17.7l3.2-99.7C4169.4,711.2,4209,719.7,4245.9,734.7z M4115.7,709.5c3.2,0,6.4,0,9.7,0.1l-3.2,99.7
					c-2.1-0.1-4.3-0.1-6.4-0.1c-28.2,0-55.3,4.8-80.5,13.5l-33.2-94.3C4038.1,716,4076.4,709.5,4115.7,709.5z M3999,729.5l33.2,94.3
					c-31.4,11.3-59.9,28.9-83.9,51.1l-68.3-72.9C3914.8,769.6,3955.2,745.2,3999,729.5z M3870.7,811c2.3-2.3,4.6-4.5,6.9-6.7
					l68.3,72.9c-22.1,21-40.4,46.1-53.5,74l-90.8-41.9C3818.5,873.2,3841.7,840,3870.7,811z M3800.3,912.1L3891,954
					c-12.9,28.3-20.6,59.5-21.9,92.3l-99.7-3.2C3771.1,997.2,3781.6,952.9,3800.3,912.1z M3769.2,1056c0-3.2,0-6.4,0.1-9.7l99.7,3.2
					c-0.1,2.1-0.1,4.3-0.1,6.4c0,29.4,5.2,57.6,14.6,83.7l-93.8,34.5C3776.3,1136.9,3769.2,1097,3769.2,1056z M3790.9,1177.3
					l93.8-34.5c11.4,30.1,28.4,57.5,49.9,80.7l-72.9,68.3C3830.5,1258.1,3806.6,1219.3,3790.9,1177.3z M3870.7,1301
					c-2.3-2.3-4.5-4.6-6.7-6.9l72.9-68.3c15.8,16.7,34,31.1,53.9,42.9l-47.7,87.9C3916.9,1341.5,3892.6,1322.9,3870.7,1301z
					 M4460,1686.3h-688.5l172.6-318.1c11.3,6.2,22.9,11.8,34.8,16.8l-12.2,29.6c-2.8-0.9-5.7-1.4-8.8-1.4c-16,0-28.9,12.9-28.9,28.9
					s12.9,28.9,28.9,28.9c16,0,28.9-12.9,28.9-28.9c0-11.8-7-21.9-17.2-26.4l12.1-29.6c38,15.4,78.7,24.2,120.7,25.7l-1,30.3
					c-15.7,0.4-28.2,13.1-28.2,28.9c0,16,12.9,28.9,28.9,28.9c16,0,28.9-12.9,28.9-28.9c0-15.1-11.6-27.5-26.4-28.8l1-30.3
					c3.3,0.1,6.6,0.1,10,0.1c40.4,0,79.8-6.7,116.9-19.6l10.4,29.5c-9.8,4.6-16.6,14.6-16.6,26.2c0,16,12.9,28.9,28.9,28.9
					c16,0,28.9-12.9,28.9-28.9s-12.9-28.9-28.9-28.9c-3.2,0-6.4,0.5-9.3,1.5l-10.3-29.3c17.8-6.4,35.1-14.1,51.7-23.3L4460,1686.3z
					 M4288.4,1356.6l-47.7-87.9c15.3-9,29.5-19.6,42.5-31.6l68.3,72.9C4332.1,1328,4310.9,1343.6,4288.4,1356.6z M4360.7,1301
					c-2.3,2.3-4.6,4.5-6.9,6.7l-68.3-72.9c22.1-21,40.4-46.1,53.5-74l90.8,41.9C4412.9,1238.8,4389.7,1272,4360.7,1301z
					 M4431.2,1199.9l-90.8-41.9c12.9-28.3,20.6-59.5,21.9-92.3l99.7,3.2C4460.3,1114.8,4449.8,1159.1,4431.2,1199.9z"/>
				<rect x="4604.1" y="1283.6" class="st12" width="371.4" height="544.2"/>
				<rect x="4921.2" y="1495.2" class="st12" width="371.4" height="329.6"/>
				<rect x="3480.8" y="1446.8" class="st11" width="208.4" height="276.6"/>
				<rect x="4789.9" y="766.1" class="st12" width="262.7" height="1061.7"/>
				<polygon class="st12" points="5485.1,1827.8 5138.6,1827.8 5138.6,1207.9 5401.3,1207.9 				"/>
				<rect x="5333.4" y="1686.3" class="st12" width="303.5" height="141.5"/>
				<rect x="4984.6" y="544.3" class="st12" width="9.1" height="288.5"/>
				<rect x="5015.2" y="606.2" class="st12" width="9.1" height="288.5"/>
				<rect x="4956.9" y="646" class="st12" width="9.1" height="288.5"/>
				<rect x="5152.2" y="1157.8" class="st12" width="124" height="97.7"/>
				<rect x="5165.8" y="1122.9" class="st12" width="96.8" height="54.9"/>
				<rect x="5325.5" y="1186.4" class="st12" width="23.8" height="39.4"/>
				<rect x="5357.7" y="1150.4" class="st12" width="34" height="75.4"/>
			</g>
			<g>
				<g>
					<rect x="3479.8" y="1005.6" class="st13" width="314.9" height="1015.2"/>
					<rect x="3456.2" y="1011.6" class="st13" width="362" height="10.3"/>
					<rect x="3466" y="1154.2" class="st13" width="342.4" height="10.3"/>
					<rect x="3466" y="1292.3" class="st13" width="342.4" height="10.3"/>
					<rect x="3466" y="1430.4" class="st13" width="342.4" height="10.3"/>
					<rect x="3466" y="1568.5" class="st13" width="342.4" height="10.3"/>
					<rect x="3466" y="1706.6" class="st13" width="342.4" height="10.3"/>
					<rect x="3466" y="1844.7" class="st13" width="342.4" height="10.3"/>
					<rect x="3444.3" y="983.6" class="st13" width="385.9" height="28"/>
					<rect x="3508.1" y="1055.3" class="st14" width="32.7" height="81.1"/>
					<rect x="3581.3" y="1055.3" class="st13" width="32.7" height="81.1"/>
					<rect x="3654.5" y="1055.3" class="st13" width="32.7" height="81.1"/>
					<rect x="3727.7" y="1055.3" class="st13" width="32.7" height="81.1"/>
					<rect x="3508.1" y="1187.9" class="st13" width="32.7" height="81.1"/>
					<rect x="3581.3" y="1187.9" class="st14" width="32.7" height="81.1"/>
					<rect x="3654.5" y="1187.9" class="st13" width="32.7" height="81.1"/>
					<rect x="3727.7" y="1187.9" class="st13" width="32.7" height="81.1"/>
					<rect x="3508.1" y="1326" class="st13" width="32.7" height="81.1"/>
					<rect x="3581.3" y="1326" class="st13" width="32.7" height="81.1"/>
					<rect x="3654.5" y="1326" class="st13" width="32.7" height="81.1"/>
					<rect x="3727.7" y="1326" class="st14" width="32.7" height="81.1"/>
					<rect x="3508.1" y="1464" class="st13" width="32.7" height="81.1"/>
					<rect x="3581.3" y="1464" class="st14" width="32.7" height="81.1"/>
					<rect x="3654.5" y="1464" class="st14" width="32.7" height="81.1"/>
					<rect x="3727.7" y="1464" class="st13" width="32.7" height="81.1"/>
					<rect x="3508.1" y="1602.1" class="st14" width="32.7" height="81.1"/>
					<rect x="3581.3" y="1602.1" class="st13" width="32.7" height="81.1"/>
					<rect x="3654.5" y="1602.1" class="st13" width="32.7" height="81.1"/>
					<rect x="3727.7" y="1602.1" class="st13" width="32.7" height="81.1"/>
					<rect x="3508.1" y="1740.2" class="st13" width="32.7" height="81.1"/>
					<rect x="3581.3" y="1740.2" class="st13" width="32.7" height="81.1"/>
					<rect x="3654.5" y="1740.2" class="st14" width="32.7" height="81.1"/>
					<rect x="3727.7" y="1740.2" class="st13" width="32.7" height="81.1"/>
					<rect x="3508.1" y="1878.3" class="st13" width="32.7" height="81.1"/>
					<rect x="3581.3" y="1878.3" class="st14" width="32.7" height="81.1"/>
					<rect x="3654.5" y="1878.3" class="st13" width="32.7" height="81.1"/>
					<rect x="3727.7" y="1878.3" class="st14" width="32.7" height="81.1"/>
					<rect x="3499.7" y="944.9" class="st13" width="107.1" height="52.7"/>
					<rect x="3492.4" y="943.4" class="st13" width="121.7" height="9"/>
				</g>
				<g>
					<polygon class="st13" points="3028.4,2020.8 2608.8,2020.8 2608.8,1056.2 3028.4,953.6 					"/>
					<rect x="2590.4" y="1039.3" class="st13" width="36.9" height="981.5"/>
					<rect x="2695.3" y="1011.6" class="st13" width="36.9" height="1009.2"/>
					<rect x="2800.2" y="982.9" class="st13" width="36.9" height="1037.9"/>
					<rect x="2905.1" y="959.5" class="st13" width="36.9" height="1061.3"/>
					<rect x="3009.9" y="934.6" class="st13" width="36.9" height="1086.2"/>
					<rect x="2636.8" y="1121.6" class="st14" width="48.9" height="74.5"/>
					<rect x="2741.7" y="1121.6" class="st14" width="48.9" height="74.5"/>
					<rect x="2846.6" y="1121.6" class="st13" width="48.9" height="74.5"/>
					<rect x="2951.5" y="1121.6" class="st14" width="48.9" height="74.5"/>
					<rect x="2636.8" y="1251.4" class="st13" width="48.9" height="74.5"/>
					<rect x="2741.7" y="1251.4" class="st13" width="48.9" height="74.5"/>
					<rect x="2846.6" y="1251.4" class="st14" width="48.9" height="74.5"/>
					<rect x="2951.5" y="1251.4" class="st14" width="48.9" height="74.5"/>
					<rect x="2636.8" y="1381.2" class="st14" width="48.9" height="74.5"/>
					<rect x="2741.7" y="1381.2" class="st14" width="48.9" height="74.5"/>
					<rect x="2846.6" y="1381.2" class="st14" width="48.9" height="74.5"/>
					<rect x="2951.5" y="1381.2" class="st13" width="48.9" height="74.5"/>
					<rect x="2636.8" y="1511" class="st14" width="48.9" height="74.5"/>
					<rect x="2741.7" y="1511" class="st13" width="48.9" height="74.5"/>
					<rect x="2846.6" y="1511" class="st14" width="48.9" height="74.5"/>
					<rect x="2951.5" y="1511" class="st14" width="48.9" height="74.5"/>
					<rect x="2636.8" y="1640.8" class="st14" width="48.9" height="74.5"/>
					<rect x="2741.7" y="1640.8" class="st14" width="48.9" height="74.5"/>
					<rect x="2846.6" y="1640.8" class="st13" width="48.9" height="74.5"/>
					<rect x="2951.5" y="1640.8" class="st14" width="48.9" height="74.5"/>
					<rect x="2636.8" y="1770.6" class="st13" width="48.9" height="74.5"/>
					<rect x="2741.7" y="1770.6" class="st13" width="48.9" height="74.5"/>
					<rect x="2846.6" y="1770.6" class="st14" width="48.9" height="74.5"/>
					<rect x="2951.5" y="1770.6" class="st14" width="48.9" height="74.5"/>
					<rect x="2636.8" y="1900.4" class="st14" width="48.9" height="74.5"/>
					<rect x="2741.7" y="1900.4" class="st13" width="48.9" height="74.5"/>
					<rect x="2846.6" y="1900.4" class="st14" width="48.9" height="74.5"/>
					<rect x="2951.5" y="1900.4" class="st13" width="48.9" height="74.5"/>
				</g>
				<polygon class="st13" points="1412.1,1102.4 1412.1,1112.5 1402.1,1112.5 1402.1,1141 1577.6,1141 1577.6,2020.8 1289.6,2020.8 
					1289.6,1186.9 1289.6,1141 1289.6,1112.5 1279.1,1112.5 1279.1,1102.4 				"/>
				<rect x="1902.8" y="1502.1" class="st13" width="246.7" height="518.7"/>
				<g>
					<rect x="827.4" y="1383.2" class="st13" width="200.6" height="637.6"/>
					<rect x="988.2" y="1516" class="st13" width="218.6" height="504.8"/>
					<rect x="899.5" y="1357.6" class="st13" width="88.7" height="76.3"/>
					<rect x="1003.2" y="1507.7" class="st13" width="233" height="18.7"/>
				</g>
				<rect x="1183.3" y="1732.5" class="st13" width="245.1" height="288.3"/>
				<rect x="391.3" y="1498" class="st13" width="199.3" height="522.7"/>
				<rect x="218.3" y="1758.5" class="st13" width="262.2" height="262.2"/>
				<rect x="-70.5" y="1715.7" class="st13" width="164" height="305.1"/>
				<rect x="61.7" y="1925.2" class="st13" width="387.7" height="95.6"/>
				<rect x="-219" y="1894.3" class="st13" width="198.7" height="126.5"/>
				<rect x="590.6" y="1827.8" class="st13" width="308.9" height="192.9"/>
				<rect x="1496.7" y="1937.7" class="st13" width="481.2" height="83.1"/>
				<rect x="2349.8" y="1937.7" class="st13" width="481.2" height="83.1"/>
				<polygon class="st13" points="1959.2,1693.7 1776.3,1693.7 1698.9,1979.2 1959.2,1979.2 				"/>
				<rect x="2043.7" y="1278.2" class="st13" width="5.1" height="316.8"/>
				<rect x="2069.2" y="1385.4" class="st13" width="6.8" height="186.9"/>
				<rect x="2032.8" y="1418.5" class="st13" width="92.5" height="92.5"/>
				<rect x="2017.1" y="1411.3" class="st13" width="122.5" height="8.3"/>
				<rect x="2104.7" y="1753.2" class="st13" width="299" height="267.6"/>
				<rect x="2346.5" y="1458.7" class="st13" width="192.1" height="516.2"/>
				<rect x="3096.6" y="1555.7" class="st13" width="306.9" height="465"/>
				<rect x="3000.4" y="1849.4" class="st13" width="349.9" height="171.4"/>
				<rect x="3386.5" y="1959.4" class="st13" width="227.5" height="61.3"/>
				<rect x="3737" y="1849.4" class="st13" width="369.9" height="171.4"/>
				<g>
					
						<rect x="3884.3" y="1400.8" transform="matrix(-1 -1.224647e-16 1.224647e-16 -1 8228.9795 3421.5754)" class="st13" width="460.3" height="620"/>
					
						<rect x="3872.4" y="1377" transform="matrix(-1 -1.224647e-16 1.224647e-16 -1 8243.9434 2777.8196)" class="st13" width="499.1" height="23.8"/>
					
						<rect x="4122" y="1312.5" transform="matrix(-1 -1.224647e-16 1.224647e-16 -1 8446.2334 2750.6423)" class="st13" width="202.3" height="125.7"/>
					
						<rect x="4021.9" y="1312.5" transform="matrix(-1 -1.224647e-16 1.224647e-16 -1 8077.8071 2701.3845)" class="st13" width="34" height="76.4"/>
					
						<rect x="3950.6" y="1312.5" transform="matrix(-1 -1.224647e-16 1.224647e-16 -1 7938.5254 2701.3845)" class="st13" width="37.4" height="76.4"/>
				</g>
				<g>
					
						<rect x="4661.1" y="1115.3" transform="matrix(-1 -1.224647e-16 1.224647e-16 -1 9686.5244 3136.106)" class="st13" width="364.4" height="905.4"/>
					
						<rect x="4650.7" y="1099.8" transform="matrix(-1 -1.224647e-16 1.224647e-16 -1 9686.5244 2225.1145)" class="st13" width="385.1" height="25.6"/>
					
						<rect x="4673.3" y="1067" transform="matrix(-1 -1.224647e-16 1.224647e-16 -1 9686.5244 2255.6465)" class="st13" width="339.9" height="121.6"/>
					
						<rect x="4852.6" y="1017.2" transform="matrix(-1 -1.224647e-16 1.224647e-16 -1 9839.7783 2167.3669)" class="st13" width="134.6" height="132.9"/>
					<polygon class="st13" points="4909.3,1054.7 4987.2,1054.7 4987.2,984.7 4931.3,984.7 					"/>
					
						<rect x="4948.2" y="926.7" transform="matrix(-1 -1.224647e-16 1.224647e-16 -1 9904.0273 2009.1453)" class="st13" width="7.6" height="155.8"/>
					<ellipse class="st13" cx="4952" cy="918.6" rx="6.8" ry="8.1"/>
				</g>
				<rect x="4975.6" y="1647" class="st13" width="163.1" height="373.8"/>
				<rect x="4511.1" y="1464.7" class="st13" width="186" height="556"/>
				<polygon class="st13" points="4604.1,2020.8 4342.2,2020.8 4342.2,1723.4 4563.3,1821.3 				"/>
				<rect x="5085.1" y="1859.3" class="st13" width="400" height="161.5"/>
				<rect x="5337.4" y="1376" class="st13" width="232.4" height="644.7"/>
				<rect x="5515.4" y="1900.4" class="st13" width="385" height="120.4"/>
				<rect x="5325.5" y="1364.2" class="st13" width="254.9" height="21.1"/>
				<rect x="5533.5" y="1273.2" class="st13" width="5.1" height="129.9"/>
				<rect x="5499.5" y="1289.7" class="st13" width="5.1" height="104.2"/>
				<polygon class="st13" points="5655.8,1618.9 5552.2,1618.9 5552.2,1914.3 5700,1914.3 				"/>
			</g>
		</g>
	</g>
</g>
</svg>
