<?xml version="1.0" encoding="utf-8"?>
<!-- Generator: Adobe Illustrator 21.0.0, SVG Export Plug-In . SVG Version: 6.00 Build 0)  -->
<svg version="1.1" id="Layer_1" xmlns="http://www.w3.org/2000/svg" xmlns:xlink="http://www.w3.org/1999/xlink" x="0px" y="0px"
	 viewBox="0 0 4000 2153" style="enable-background:new 0 0 4000 2153;" xml:space="preserve">
<style type="text/css">
	.st0{fill:none;stroke:#000000;stroke-width:5;stroke-miterlimit:10;}
	.st1{fill:url(#SVGID_1_);}
	.st2{clip-path:url(#SVGID_2_);}
	.st3{fill:#46508C;}
	.st4{opacity:0.29;fill:#46508C;}
	.st5{fill:#B5C3C2;}
	.st6{fill:#242849;}
	.st7{fill:#95A9A7;}
	.st8{fill:#0E101C;}
	.st9{opacity:0.29;fill:#0E101C;}
</style>
<path class="st0" d="M2242.3,1335.5"/>
<linearGradient id="SVGID_1_" gradientUnits="userSpaceOnUse" x1="233.1274" y1="1345.8243" x2="3681.2029" y2="1345.8243">
	<stop  offset="0" style="stop-color:#B00063"/>
	<stop  offset="1" style="stop-color:#61002C"/>
</linearGradient>
<path class="st1" d="M3653.3,1528.6c-42.6,196.8-155.9,376.8-347.6,454.7c-200.5,81.4-408.4,22.2-582.3-94.1
	c-141.5-94.5-274.2-215.8-373.7-356.5c-14.7-20.8-26.9-43.3-37-66.7c-15.1-35.1-35.3-67.5-59.5-96.3
	c-70.4-83.6-175.6-136.9-293.3-137.7c-0.9,0-1.8,0-2.8,0c-112.7,0-214.2,48.2-284.9,125.1c-28.8,31.3-52.5,67.3-69.8,106.8
	c-8.6,19.6-18.5,38.5-30.3,56.3c-10.7,16-21.9,31.8-34,47.4c-130.9,168.8-315,330.8-514.8,410.4c-193.3,77.1-410.9,51.3-569.3-89.2
	c-138.2-122.6-194.2-311.8-212.9-489.7c-16.1-153.4-14.8-327,68.4-462.8c108.5-177.3,330.7-215.1,519.8-245
	c131.8-20.8,253.4-20.5,386.7-20.5h1416.5c160.8,0,310.5-1.6,469.3,23.3c206.2,32.3,436.5,84.4,528.6,294.3
	C3703.7,1155.4,3684.9,1353.9,3653.3,1528.6z"/>
<g>
	<defs>
		<path id="SVGID_3_" d="M3681.8,1232.2h-0.4c3.1,100-10.3,201.8-27.4,296.6c-42.6,196.8-155.9,376.8-347.6,454.7
			c-200.5,81.5-408.4,22.2-582.3-94.1c-141.5-94.5-274.2-215.8-373.7-356.5c-14.7-20.8-26.9-43.3-37-66.6
			c-15.1-35.1-35.3-67.5-59.5-96.3c-70.5-83.6-175.7-136.9-293.3-137.7h-2.8c-112.7,0-214.2,48.2-284.9,125.1
			c-28.8,31.3-52.5,67.3-69.8,106.8c-8.6,19.6-18.5,38.6-30.4,56.3c-10.7,16-21.9,31.8-34,47.4c-130.9,168.8-315,330.8-514.8,410.4
			c-193.3,77.1-410.9,51.3-569.3-89.2c-138.2-122.6-194.2-311.8-212.9-489.7c-5.7-54-9.2-110.6-7.7-167.1h-0.3V116h3448.1V1232.2z"
			/>
	</defs>
	<clipPath id="SVGID_2_">
		<use xlink:href="#SVGID_3_"  style="overflow:visible;"/>
	</clipPath>
	<g class="st2">
		<g>
			<g>
				<rect x="1450.3" y="678.4" class="st3" width="272.2" height="1083.7"/>
				<rect x="1494.8" y="600.7" class="st3" width="183.3" height="455.4"/>
				<rect x="1535.6" y="551.4" class="st3" width="101.7" height="252.6"/>
				<polygon class="st3" points="1621.1,681.2 1551.8,681.2 1551.8,509.1 1576.8,509.1 1601.6,509.1 1621.1,509.1 				"/>
				<g>
					<polygon class="st3" points="1581.9,606.3 1574.4,606.3 1574.4,434.1 1577.1,434.1 1579.8,434.1 1581.9,434.1 					"/>
					<polygon class="st3" points="1598.5,546.7 1591,546.7 1591,374.6 1593.7,374.6 1596.4,374.6 1598.5,374.6 					"/>
				</g>
				<rect x="1443.1" y="675.6" class="st3" width="286.8" height="11.5"/>
				<rect x="1488.1" y="595.1" class="st3" width="196.7" height="11.1"/>
				<rect x="1528.2" y="546.7" class="st3" width="113.3" height="8.5"/>
				<rect x="1511.7" y="619.2" class="st4" width="8.5" height="47.7"/>
				<rect x="1535.3" y="619.2" class="st4" width="8.5" height="47.7"/>
				<rect x="1558.8" y="619.2" class="st4" width="8.5" height="47.7"/>
				<rect x="1582.4" y="619.2" class="st4" width="8.5" height="47.7"/>
				<rect x="1606" y="619.2" class="st4" width="8.5" height="47.7"/>
				<rect x="1629.6" y="619.2" class="st4" width="8.5" height="47.7"/>
				<rect x="1653.1" y="619.2" class="st4" width="8.5" height="47.7"/>
				<rect x="1474.2" y="721.6" class="st3" width="20.6" height="56.6"/>
				<rect x="1515" y="721.6" class="st4" width="20.6" height="56.6"/>
				<rect x="1555.8" y="721.6" class="st3" width="20.6" height="56.6"/>
				<rect x="1596.6" y="721.6" class="st3" width="20.6" height="56.6"/>
				<rect x="1637.3" y="721.6" class="st3" width="20.6" height="56.6"/>
				<rect x="1678.1" y="721.6" class="st3" width="20.6" height="56.6"/>
				<rect x="1474.2" y="809.8" class="st3" width="20.6" height="56.6"/>
				<rect x="1515" y="809.8" class="st3" width="20.6" height="56.6"/>
				<rect x="1555.8" y="809.8" class="st3" width="20.6" height="56.6"/>
				<rect x="1596.6" y="809.8" class="st4" width="20.6" height="56.6"/>
				<rect x="1637.3" y="809.8" class="st3" width="20.6" height="56.6"/>
				<rect x="1678.1" y="809.8" class="st3" width="20.6" height="56.6"/>
				<rect x="1474.2" y="898.1" class="st3" width="20.6" height="56.6"/>
				<rect x="1515" y="898.1" class="st3" width="20.6" height="56.6"/>
				<rect x="1555.8" y="898.1" class="st3" width="20.6" height="56.6"/>
				<rect x="1596.6" y="898.1" class="st3" width="20.6" height="56.6"/>
				<rect x="1637.3" y="898.1" class="st4" width="20.6" height="56.6"/>
				<rect x="1678.1" y="898.1" class="st4" width="20.6" height="56.6"/>
				<rect x="1474.2" y="986.3" class="st4" width="20.6" height="56.6"/>
				<rect x="1515" y="986.3" class="st3" width="20.6" height="56.6"/>
				<rect x="1555.8" y="986.3" class="st3" width="20.6" height="56.6"/>
				<rect x="1596.6" y="986.3" class="st3" width="20.6" height="56.6"/>
				<rect x="1637.3" y="986.3" class="st3" width="20.6" height="56.6"/>
				<rect x="1678.1" y="986.3" class="st3" width="20.6" height="56.6"/>
				<rect x="1474.2" y="1074.6" class="st3" width="20.6" height="56.6"/>
				<rect x="1515" y="1074.6" class="st4" width="20.6" height="56.6"/>
				<rect x="1555.8" y="1074.6" class="st3" width="20.6" height="56.6"/>
				<rect x="1596.6" y="1074.6" class="st4" width="20.6" height="56.6"/>
				<rect x="1637.3" y="1074.6" class="st3" width="20.6" height="56.6"/>
				<rect x="1678.1" y="1074.6" class="st3" width="20.6" height="56.6"/>
				<rect x="1474.2" y="1162.8" class="st3" width="20.6" height="56.6"/>
				<rect x="1515" y="1162.8" class="st3" width="20.6" height="56.6"/>
				<rect x="1555.8" y="1162.8" class="st3" width="20.6" height="56.6"/>
				<rect x="1596.6" y="1162.8" class="st3" width="20.6" height="56.6"/>
				<rect x="1637.3" y="1162.8" class="st3" width="20.6" height="56.6"/>
				<rect x="1678.1" y="1162.8" class="st4" width="20.6" height="56.6"/>
				<rect x="1474.2" y="1251.1" class="st3" width="20.6" height="56.6"/>
				<rect x="1515" y="1251.1" class="st4" width="20.6" height="56.6"/>
				<rect x="1555.8" y="1251.1" class="st4" width="20.6" height="56.6"/>
				<rect x="1596.6" y="1251.1" class="st3" width="20.6" height="56.6"/>
				<rect x="1637.3" y="1251.1" class="st3" width="20.6" height="56.6"/>
				<rect x="1678.1" y="1251.1" class="st3" width="20.6" height="56.6"/>
				<rect x="1474.2" y="1339.3" class="st3" width="20.6" height="56.6"/>
				<rect x="1515" y="1339.3" class="st3" width="20.6" height="56.6"/>
				<rect x="1555.8" y="1339.3" class="st3" width="20.6" height="56.6"/>
				<rect x="1596.6" y="1339.3" class="st3" width="20.6" height="56.6"/>
				<rect x="1637.3" y="1339.3" class="st4" width="20.6" height="56.6"/>
				<rect x="1678.1" y="1339.3" class="st3" width="20.6" height="56.6"/>
				<rect x="1474.2" y="1427.5" class="st3" width="20.6" height="56.6"/>
				<rect x="1515" y="1427.5" class="st4" width="20.6" height="56.6"/>
				<rect x="1555.8" y="1427.5" class="st3" width="20.6" height="56.6"/>
				<rect x="1596.6" y="1427.5" class="st3" width="20.6" height="56.6"/>
				<rect x="1637.3" y="1427.5" class="st3" width="20.6" height="56.6"/>
				<rect x="1678.1" y="1427.5" class="st3" width="20.6" height="56.6"/>
				<rect x="1474.2" y="1515.8" class="st3" width="20.6" height="56.6"/>
				<rect x="1515" y="1515.8" class="st3" width="20.6" height="56.6"/>
				<rect x="1555.8" y="1515.8" class="st3" width="20.6" height="56.6"/>
				<rect x="1596.6" y="1515.8" class="st4" width="20.6" height="56.6"/>
				<rect x="1637.3" y="1515.8" class="st3" width="20.6" height="56.6"/>
				<rect x="1678.1" y="1515.8" class="st4" width="20.6" height="56.6"/>
				<rect x="1474.2" y="1604" class="st4" width="20.6" height="56.6"/>
				<rect x="1515" y="1604" class="st3" width="20.6" height="56.6"/>
				<rect x="1555.8" y="1604" class="st4" width="20.6" height="56.6"/>
				<rect x="1596.6" y="1604" class="st3" width="20.6" height="56.6"/>
				<rect x="1637.3" y="1604" class="st3" width="20.6" height="56.6"/>
				<rect x="1678.1" y="1604" class="st3" width="20.6" height="56.6"/>
			</g>
			<g>
				<rect x="659.7" y="719.6" class="st3" width="437.6" height="912.9"/>
				<rect x="647.2" y="703.9" class="st3" width="462.5" height="25.8"/>
				<rect x="674.4" y="670.9" class="st3" width="408.2" height="122.6"/>
				<rect x="705.6" y="620.7" class="st3" width="161.7" height="134"/>
				<polygon class="st3" points="799.2,658.5 705.6,658.5 705.6,587.9 772.7,587.9 				"/>
				<rect x="743.3" y="529.4" class="st3" width="9.1" height="157.1"/>
				<circle class="st3" cx="747.9" cy="521.2" r="8.1"/>
			</g>
			<polygon class="st5" points="4721.4,1702 4242.4,1702 4182.6,359.8 4721.4,471.6 			"/>
			<polygon class="st3" points="2631.4,935.5 2631.4,486.8 2556.2,486.8 2556.2,366.6 2529.4,366.6 2529.4,190.3 2381.5,190.3 
				2381.5,60.7 2368.4,60.7 2368.4,190.3 2339.4,190.3 2339.4,28.1 2326.2,28.1 2326.2,190.3 2232.7,190.3 2232.7,486.8 
				2184.5,486.8 2184.5,935.5 2143.1,935.5 2143.1,1752.8 2660.5,1752.8 2660.5,935.5 			"/>
		</g>
		<rect x="48" y="1685.3" class="st5" width="5723.8" height="136.1"/>
		<polygon class="st6" points="3417.3,1788.1 3163.8,1788.1 3262.6,1280.6 3417.3,1280.6 		"/>
		<g>
			<rect x="-157.3" y="1807.9" class="st6" width="6009.8" height="214.7"/>
			<polygon class="st6" points="3209.5,848.9 3209.5,624 3128.2,624 3128.2,538.4 3084.6,538.4 3084.6,466.5 3069.3,466.5 
				3069.3,343.2 3065.4,343.2 3065.4,466.5 3050.1,466.5 3050.1,538.4 3006.6,538.4 3006.6,624 2925.8,624 2925.8,848.9 2909,848.9 
				2909,1257.2 2783.8,1257.2 2783.8,1722.7 2909,1722.7 3034.2,1722.7 3225.7,1722.7 3225.7,848.9 			"/>
			<polygon class="st6" points="3677.3,1107.3 3283.3,1107.3 3283.3,1114.4 3301.2,1114.4 3301.2,1780.5 3659.4,1780.5 
				3659.4,1114.4 3677.3,1114.4 			"/>
			<rect x="1531.8" y="1273.2" class="st6" width="349.3" height="554.9"/>
			<rect x="878.5" y="1557.5" class="st6" width="600.6" height="270.6"/>
			<rect x="1200.4" y="952.9" class="st6" width="131.9" height="664.5"/>
			<rect x="1229.6" y="775.7" class="st6" width="6.9" height="361.3"/>
			<rect x="1251.8" y="803.1" class="st6" width="6.9" height="361.3"/>
			<rect x="1210.6" y="911.8" class="st6" width="80.6" height="89.1"/>
			<rect x="1455.6" y="1372.5" class="st6" width="229.5" height="455.5"/>
			<rect x="1937.6" y="890.4" class="st6" width="430.8" height="937.6"/>
			<rect x="1979.9" y="858.2" class="st6" width="346.1" height="156.2"/>
			<rect x="1904.2" y="910.1" class="st6" width="497.5" height="11"/>
			<rect x="1859.6" y="1354.5" class="st6" width="203" height="473.5"/>
			<rect x="405.8" y="1336.5" class="st6" width="232.9" height="491.5"/>
			<g>
				<rect x="481.2" y="1203" class="st6" width="464.1" height="625.1"/>
				<rect x="454.1" y="1179" class="st6" width="503.2" height="24"/>
				<rect x="501.7" y="1113.9" class="st6" width="204" height="126.7"/>
				<rect x="772.3" y="1113.9" class="st6" width="34.3" height="77.1"/>
				<rect x="840.8" y="1113.9" class="st6" width="37.7" height="77.1"/>
			</g>
			<rect x="279.1" y="1637.9" class="st6" width="243.2" height="190.1"/>
			<rect x="187.3" y="1557.5" class="st6" width="115.1" height="270.6"/>
			<rect x="48" y="1733" class="st6" width="196.8" height="95"/>
			<rect x="2326.1" y="1617.4" class="st6" width="2425" height="210.6"/>
			<path class="st7" d="M4557.4,1034.3c-15.3,0-27.8,11.7-29,26.7l-34.1-1.1c0.1-3.3,0.1-6.7,0.1-10c0-42.5-7.3-83.8-21.4-122.6
				l28.5-10.5c4.5,10.3,14.8,17.6,26.7,17.6c16.1,0,29.1-13,29.1-29.1c0-16.1-13-29.1-29.1-29.1c-16.1,0-29.1,13-29.1,29.1
				c0,3,0.4,5.8,1.3,8.5l-28.5,10.5c-16.2-43.6-41-83.8-73.5-118.7l22.3-20.9c5.2,5,12.3,8.1,20.1,8.1c16.1,0,29.1-13,29.1-29.1
				s-13-29.1-29.1-29.1c-16.1,0-29.1,13-29.1,29.1c0,7.1,2.6,13.6,6.8,18.7l-22.3,20.9c-2.3-2.4-4.6-4.8-7-7.2
				c-33.8-33.8-73.1-60-115.9-77.8l12.3-29.9c2.8,0.9,5.7,1.4,8.8,1.4c16.1,0,29.1-13,29.1-29.1c0-16.1-13-29.1-29.1-29.1
				s-29.1,13-29.1,29.1c0,11.9,7.1,22.1,17.3,26.6l-12.2,29.8c-38.3-15.5-79.4-24.4-121.7-25.9l1.3-40.8c0.3,0,0.6,0,0.9,0
				c16.1,0,29.1-13,29.1-29.1s-13-29.1-29.1-29.1c-16.1,0-29.1,13-29.1,29.1c0,14.7,10.9,26.8,25,28.8l-1.3,41
				c-3.3-0.1-6.7-0.1-10-0.1c-40.8,0-80.5,6.7-117.9,19.7l-11.7-33.3c10.6-4.4,18.1-14.8,18.1-27c0-16.1-13-29.1-29.1-29.1
				s-29.1,13-29.1,29.1s13,29.1,29.1,29.1c2.8,0,5.5-0.4,8-1.1l11.8,33.3c-45.4,16.2-87.3,41.6-123.4,75.2l-21.3-22.7
				c4.8-5.2,7.7-12.1,7.7-19.7c0-16.1-13-29.1-29.1-29.1c-16.1,0-29.1,13-29.1,29.1c0,16.1,13,29.1,29.1,29.1c7.3,0,14-2.7,19.1-7.2
				l21.3,22.7c-2.4,2.3-4.8,4.6-7.2,7c-30,30-54.1,64.5-71.6,101.9l-27.1-12.5c1-2.9,1.5-6,1.5-9.3c0-16.1-13-29.1-29.1-29.1
				s-29.1,13-29.1,29.1s13,29.1,29.1,29.1c11.7,0,21.8-6.9,26.4-16.8l26.9,12.4c-19.3,42.3-30.3,88.2-32,135.8l-34.7-1.1
				c-0.4-15.7-13.3-28.3-29.1-28.3c-16.1,0-29.1,13-29.1,29.1c0,16.1,13,29.1,29.1,29.1c15.3,0,27.8-11.8,29-26.7l34.7,1.1
				c-0.1,3.3-0.1,6.7-0.1,10c0,42.5,7.3,83.8,21.4,122.6l-28.5,10.5c-4.5-10.3-14.8-17.6-26.7-17.6c-16.1,0-29.1,13-29.1,29.1
				c0,16.1,13,29.1,29.1,29.1c16.1,0,29.1-13,29.1-29.1c0-3-0.4-5.8-1.3-8.5l28.5-10.5c16.2,43.6,41,83.8,73.5,118.7l-22.3,20.9
				c-5.2-5-12.3-8.1-20.1-8.1c-16.1,0-29.1,13-29.1,29.1c0,16.1,13,29.1,29.1,29.1c16.1,0,29.1-13,29.1-29.1
				c0-7.1-2.6-13.6-6.8-18.7l22.3-20.9c2.3,2.4,4.6,4.8,7,7.2c22.8,22.8,48,42.1,75.2,57.7l-175.7,323.9h-31.5v9.3h-15.4v18.4h802.9
				v-18.4h-15.4v-9.3h-31.5L4314,1361.5c23.4-13.5,45.4-29.7,65.6-48.5l28.5,30.4c-6.1,5.3-10,13.2-10,21.9
				c0,16.1,13,29.1,29.1,29.1s29.1-13,29.1-29.1c0-16.1-13-29.1-29.1-29.1c-6.2,0-11.9,1.9-16.6,5.2l-28.7-30.6
				c2.4-2.3,4.8-4.6,7.2-7c30-30,54.1-64.5,71.6-101.9l31.7,14.6c-0.6,2.3-0.9,4.7-0.9,7.1c0,16.1,13,29.1,29.1,29.1
				c16.1,0,29.1-13,29.1-29.1c0-16.1-13-29.1-29.1-29.1c-12.5,0-23.1,7.9-27.3,18.9l-31.3-14.5c19.3-42.3,30.3-88.2,32-135.8
				l34.1,1.1c0.4,15.7,13.3,28.4,29.1,28.4c16.1,0,29.1-13,29.1-29.1C4586.6,1047.4,4573.5,1034.3,4557.4,1034.3z M4484.7,1049.8
				c0,3.3,0,6.5-0.1,9.7l-100.5-3.3c0.1-2.1,0.1-4.3,0.1-6.5c0-29.6-5.2-58.1-14.8-84.4l94.6-34.8
				C4477.6,968.3,4484.7,1008.5,4484.7,1049.8z M4379.2,1056.2l-224.3-7.3c-0.1-1.5-0.3-2.9-0.7-4.2l210.6-77.5
				c9.4,25.9,14.5,53.7,14.5,82.8C4379.2,1052,4379.2,1054.1,4379.2,1056.2z M3891.5,1043.5l224.3,7.3c0.1,1.5,0.3,2.9,0.7,4.2
				l-210.6,77.5c-9.4-25.9-14.5-53.7-14.5-82.8C3891.4,1047.7,3891.4,1045.6,3891.5,1043.5z M4150.7,1037.7l163.7-153.3
				c21.2,22.9,38.1,50,49.3,79.7l-210.6,77.5C4152.4,1040.2,4151.6,1038.9,4150.7,1037.7z M4148.4,1035.3c-1.3-1.1-2.7-2.1-4.2-2.9
				l85.2-207.6c31.4,13.2,59.5,32.8,82.6,57.1L4148.4,1035.3z M4141.2,1031.2c-1.2-0.4-2.4-0.6-3.7-0.8l7.3-224.3
				c28.7,1.1,56.2,7.2,81.6,17.5L4141.2,1031.2z M4134.3,1030.3c-1.4,0.1-2.7,0.3-4,0.6l-74.6-211.6c24.9-8.6,51.7-13.3,79.6-13.3
				c2.1,0,4.2,0,6.3,0.1L4134.3,1030.3z M4127.3,1032c-1.5,0.7-2.9,1.5-4.1,2.5l-153.3-163.6c23.8-22,51.9-39.3,82.9-50.5
				L4127.3,1032z M4120.8,1036.7c-1,1.1-1.8,2.2-2.5,3.5l-203.7-94c13-27.6,31-52.3,52.9-73.1L4120.8,1036.7z M4116.9,1043.1
				c-0.5,1.4-0.9,2.9-1,4.5l-224.3-7.3c1.3-32.4,8.8-63.2,21.6-91.2L4116.9,1043.1z M4117.5,1058.1c0.5,1.1,1.2,2.2,1.9,3.2
				l-1.3,2.5l-161.8,151.6c-21.2-22.9-38.1-50-49.3-79.7L4117.5,1058.1z M4113.2,1072.8L4011.6,1260c-19.6-11.6-37.5-25.8-53.1-42.3
				L4113.2,1072.8z M4124.2,1066c0.7,0.5,1.4,0.9,2.2,1.3l-85.2,207.6c-8.2-3.4-16.2-7.3-23.9-11.6L4124.2,1066z M4129.4,1068.5
				c1.2,0.4,2.4,0.6,3.7,0.8l-7.3,224.3c-28.7-1.1-56.2-7.2-81.6-17.5L4129.4,1068.5z M4135.3,1293.8c-2.1,0-4.2,0-6.3-0.1
				l7.3-224.3c1.4-0.1,2.7-0.3,4-0.6l74.6,211.6C4189.9,1289.1,4163.2,1293.8,4135.3,1293.8z M4143.3,1067.7
				c1.1-0.5,2.1-1.1,3.1-1.7l107,197.2c-11.3,6.3-23.1,11.7-35.5,16.1L4143.3,1067.7z M4161.3,1080l139.5,148.9
				c-12.8,11.8-26.8,22.3-41.8,31.2L4161.3,1080z M4155.2,1068.7l-4-7.4c0.4-0.6,0.8-1.2,1.2-1.8l203.7,94
				c-13,27.6-31,52.3-52.9,73.1L4155.2,1068.7z M4153.7,1056.6c0.5-1.4,0.9-2.9,1-4.5l224.3,7.3c-1.3,32.4-8.8,63.2-21.6,91.2
				L4153.7,1056.6z M4039.3,1279.4l-38.3,93.2c-11.7-4.9-23.1-10.4-34.2-16.5l48.1-88.6C4022.8,1271.9,4030.9,1275.8,4039.3,1279.4z
				 M4042.3,1280.6c25.9,10.5,54,16.7,83.3,17.8l-3.3,100.6c-41.2-1.5-81.1-10.1-118.3-25.2L4042.3,1280.6z M4128.8,1298.5
				c2.1,0.1,4.3,0.1,6.5,0.1c28.4,0,55.7-4.8,81.2-13.6l33.5,95c-36.4,12.6-75,19.2-114.7,19.2c-3.3,0-6.5,0-9.7-0.1L4128.8,1298.5z
				 M4219.5,1283.9c12.6-4.5,24.6-10,36.2-16.4l48.1,88.6c-16.3,9-33.2,16.6-50.7,22.9L4219.5,1283.9z M4462.8,927.6l-94.6,34.8
				c-11.4-30.4-28.7-57.9-50.3-81.4l73.5-68.9C4422.9,846.1,4447,885.2,4462.8,927.6z M4382.4,802.8c2.3,2.3,4.6,4.6,6.8,7
				l-73.5,68.9c-23.6-24.9-52.3-44.8-84.3-58.3l38.3-93.2C4311.2,744.4,4349.5,769.9,4382.4,802.8z M4266.6,725.9l-38.3,93.2
				c-25.9-10.5-54-16.7-83.3-17.8l3.3-100.6C4189.4,702.2,4229.3,710.8,4266.6,725.9z M4135.3,700.5c3.3,0,6.5,0,9.7,0.1l-3.3,100.5
				c-2.1-0.1-4.3-0.1-6.5-0.1c-28.4,0-55.7,4.8-81.2,13.6l-33.5-95C4057,707,4095.7,700.5,4135.3,700.5z M4017.6,720.7l33.5,95
				c-31.7,11.4-60.4,29.1-84.6,51.5l-68.9-73.5C3932.7,761.1,3973.5,736.5,4017.6,720.7z M3888.3,802.8c2.3-2.3,4.6-4.6,7-6.8
				l68.9,73.5c-22.3,21.2-40.7,46.5-54,74.6l-91.5-42.2C3835.6,865.5,3859,832,3888.3,802.8z M3817.3,904.8l91.5,42.2
				c-13,28.6-20.8,60-22,93.1l-100.6-3.3C3787.8,990.6,3798.5,945.9,3817.3,904.8z M3785.9,1049.8c0-3.3,0-6.5,0.1-9.7l100.5,3.3
				c-0.1,2.1-0.1,4.3-0.1,6.5c0,29.6,5.2,58.1,14.8,84.4l-94.6,34.8C3793.1,1131.4,3785.9,1091.2,3785.9,1049.8z M3807.8,1172.1
				l94.6-34.8c11.4,30.4,28.7,57.9,50.3,81.4l-73.5,68.9C3847.7,1253.6,3823.6,1214.5,3807.8,1172.1z M3888.3,1296.9
				c-2.3-2.3-4.6-4.6-6.8-7l73.5-68.9c16,16.8,34.3,31.4,54.3,43.2l-48.1,88.6C3934.9,1337.7,3910.3,1319,3888.3,1296.9z
				 M4482.4,1685.3h-694.2l174-320.7c11.4,6.3,23.1,11.9,35.1,16.9l-12.3,29.9c-2.8-0.9-5.7-1.4-8.8-1.4c-16.1,0-29.1,13-29.1,29.1
				c0,16.1,13,29.1,29.1,29.1s29.1-13,29.1-29.1c0-11.9-7.1-22.1-17.3-26.6l12.2-29.8c38.3,15.5,79.4,24.4,121.7,25.9l-1,30.6
				c-15.8,0.4-28.5,13.3-28.5,29.1c0,16.1,13,29.1,29.1,29.1c16.1,0,29.1-13,29.1-29.1c0-15.2-11.7-27.7-26.6-29l1-30.6
				c3.3,0.1,6.7,0.1,10,0.1c40.8,0,80.5-6.7,117.9-19.7l10.5,29.7c-9.9,4.7-16.8,14.7-16.8,26.4c0,16.1,13,29.1,29.1,29.1
				c16.1,0,29.1-13,29.1-29.1c0-16.1-13-29.1-29.1-29.1c-3.3,0-6.4,0.5-9.3,1.5l-10.4-29.6c18-6.4,35.4-14.3,52.1-23.5
				L4482.4,1685.3z M4309.4,1352.9l-48.1-88.6c15.4-9.1,29.8-19.8,42.8-31.9l68.9,73.5C4353.4,1324.1,4332.1,1339.8,4309.4,1352.9z
				 M4382.4,1296.9c-2.3,2.3-4.6,4.6-7,6.8l-68.9-73.5c22.3-21.2,40.7-46.5,54-74.6l91.5,42.2
				C4435,1234.2,4411.6,1267.7,4382.4,1296.9z M4453.4,1194.9l-91.5-42.2c13-28.6,20.8-60,22-93.1l100.6,3.3
				C4482.8,1109.1,4472.1,1153.8,4453.4,1194.9z"/>
			<rect x="4627.7" y="1279.4" class="st7" width="374.5" height="548.7"/>
			<rect x="4947.4" y="1492.7" class="st7" width="374.5" height="332.3"/>
			<rect x="3495.2" y="1443.9" class="st6" width="210.1" height="278.8"/>
			<rect x="4815" y="757.6" class="st7" width="264.9" height="1070.5"/>
			<polygon class="st7" points="5516,1828 5166.6,1828 5166.6,1203 5431.5,1203 			"/>
			<rect x="5363" y="1685.3" class="st7" width="306" height="142.7"/>
			<rect x="5011.3" y="533.9" class="st7" width="9.1" height="290.9"/>
			<rect x="5042.2" y="596.4" class="st7" width="9.1" height="290.9"/>
			<rect x="4983.4" y="636.5" class="st7" width="9.1" height="290.9"/>
			<rect x="5180.3" y="1152.4" class="st7" width="125" height="98.5"/>
			<rect x="5194" y="1117.3" class="st7" width="97.6" height="55.3"/>
			<rect x="5355" y="1181.3" class="st7" width="24" height="39.8"/>
			<rect x="5387.5" y="1145" class="st7" width="34.2" height="76"/>
		</g>
		<g>
			<g>
				<polygon class="st8" points="3039,2022.5 2616.1,2022.5 2616.1,1050.1 3039,946.6 				"/>
				<rect x="2597.5" y="1033" class="st8" width="37.2" height="989.6"/>
				<rect x="2703.2" y="1005.1" class="st8" width="37.2" height="1017.5"/>
				<rect x="2809" y="976.1" class="st8" width="37.2" height="1046.4"/>
				<rect x="2914.7" y="952.5" class="st8" width="37.2" height="1070"/>
				<rect x="3020.5" y="927.4" class="st8" width="37.2" height="1095.1"/>
				<rect x="2644.3" y="1116" class="st9" width="49.3" height="75.2"/>
				<rect x="2750" y="1116" class="st9" width="49.3" height="75.2"/>
				<rect x="2855.8" y="1116" class="st8" width="49.3" height="75.2"/>
				<rect x="2961.5" y="1116" class="st9" width="49.3" height="75.2"/>
				<rect x="2644.3" y="1246.9" class="st8" width="49.3" height="75.2"/>
				<rect x="2750" y="1246.9" class="st8" width="49.3" height="75.2"/>
				<rect x="2855.8" y="1246.9" class="st9" width="49.3" height="75.2"/>
				<rect x="2961.5" y="1246.9" class="st9" width="49.3" height="75.2"/>
				<rect x="2644.3" y="1377.7" class="st9" width="49.3" height="75.2"/>
				<rect x="2750" y="1377.7" class="st9" width="49.3" height="75.2"/>
				<rect x="2855.8" y="1377.7" class="st9" width="49.3" height="75.2"/>
				<rect x="2961.5" y="1377.7" class="st8" width="49.3" height="75.2"/>
				<rect x="2644.3" y="1508.6" class="st9" width="49.3" height="75.2"/>
				<rect x="2750" y="1508.6" class="st8" width="49.3" height="75.2"/>
				<rect x="2855.8" y="1508.6" class="st9" width="49.3" height="75.2"/>
				<rect x="2961.5" y="1508.6" class="st9" width="49.3" height="75.2"/>
				<rect x="2644.3" y="1639.5" class="st9" width="49.3" height="75.1"/>
				<rect x="2750" y="1639.5" class="st9" width="49.3" height="75.1"/>
				<rect x="2855.8" y="1639.5" class="st8" width="49.3" height="75.1"/>
				<rect x="2961.5" y="1639.5" class="st9" width="49.3" height="75.1"/>
				<rect x="2644.3" y="1770.3" class="st8" width="49.3" height="75.2"/>
				<rect x="2750" y="1770.3" class="st8" width="49.3" height="75.2"/>
				<rect x="2855.8" y="1770.3" class="st9" width="49.3" height="75.2"/>
				<rect x="2961.5" y="1770.3" class="st9" width="49.3" height="75.2"/>
				<rect x="2644.3" y="1901.2" class="st9" width="49.3" height="75.2"/>
				<rect x="2750" y="1901.2" class="st8" width="49.3" height="75.2"/>
				<rect x="2855.8" y="1901.2" class="st9" width="49.3" height="75.2"/>
				<rect x="2961.5" y="1901.2" class="st8" width="49.3" height="75.2"/>
			</g>
			<polygon class="st8" points="1409.4,1096.7 1409.4,1106.8 1399.4,1106.8 1399.4,1135.5 1576.4,1135.5 1576.4,2022.5 
				1285.9,2022.5 1285.9,1181.8 1285.9,1135.5 1285.9,1106.8 1275.4,1106.8 1275.4,1096.7 			"/>
			<rect x="1904.2" y="1499.6" class="st8" width="248.8" height="523"/>
			<g>
				<rect x="820" y="1379.7" class="st8" width="202.2" height="642.9"/>
				<rect x="982.1" y="1513.6" class="st8" width="220.4" height="508.9"/>
				<rect x="892.7" y="1353.9" class="st8" width="89.4" height="76.9"/>
				<rect x="997.2" y="1505.2" class="st8" width="234.9" height="18.8"/>
			</g>
			<rect x="1178.8" y="1731.9" class="st8" width="247.1" height="290.6"/>
			<rect x="380.3" y="1495.5" class="st8" width="201" height="527"/>
			<rect x="205.9" y="1758.1" class="st8" width="264.4" height="264.4"/>
			<rect x="-85.2" y="1714.9" class="st8" width="165.4" height="307.6"/>
			<rect x="48" y="1926.2" class="st8" width="390.9" height="96.4"/>
			<rect x="-235" y="1895.1" class="st8" width="200.3" height="127.5"/>
			<rect x="581.3" y="1828" class="st8" width="311.4" height="194.5"/>
			<rect x="1494.8" y="1938.7" class="st8" width="485.1" height="83.8"/>
			<rect x="2354.9" y="1938.7" class="st8" width="485.1" height="83.8"/>
			<polygon class="st8" points="1961.1,1692.7 1776.7,1692.7 1698.7,1980.6 1961.1,1980.6 			"/>
			<rect x="2046.3" y="1273.8" class="st8" width="5.1" height="319.4"/>
			<rect x="2072" y="1381.9" class="st8" width="6.9" height="188.5"/>
			<rect x="2035.3" y="1415.3" class="st8" width="93.3" height="93.3"/>
			<rect x="2019.5" y="1408.1" class="st8" width="123.6" height="8.4"/>
			<rect x="2107.8" y="1752.8" class="st8" width="301.4" height="269.7"/>
			<rect x="2351.5" y="1455.8" class="st8" width="193.7" height="520.5"/>
			<rect x="3107.9" y="1553.7" class="st8" width="309.4" height="468.8"/>
			<rect x="3010.8" y="1849.8" class="st8" width="352.8" height="172.8"/>
			<rect x="3400.1" y="1960.7" class="st8" width="229.4" height="61.8"/>
			<rect x="3753.4" y="1849.8" class="st8" width="373" height="172.8"/>
			<g>
				
					<rect x="3902" y="1397.5" transform="matrix(-1 -1.224647e-16 1.224647e-16 -1 8268.1416 3420.0227)" class="st8" width="464.1" height="625.1"/>
				
					<rect x="3890" y="1373.5" transform="matrix(-1 -1.224647e-16 1.224647e-16 -1 8283.2285 2770.9812)" class="st8" width="503.2" height="24"/>
				
					<rect x="4141.6" y="1308.4" transform="matrix(-1 -1.224647e-16 1.224647e-16 -1 8487.1797 2743.5808)" class="st8" width="204" height="126.7"/>
				
					<rect x="4040.7" y="1308.4" transform="matrix(-1 -1.224647e-16 1.224647e-16 -1 8115.7285 2693.9185)" class="st8" width="34.3" height="77.1"/>
				
					<rect x="3968.8" y="1308.4" transform="matrix(-1 -1.224647e-16 1.224647e-16 -1 7975.3027 2693.9185)" class="st8" width="37.7" height="77.1"/>
			</g>
			<g>
				
					<rect x="4685.1" y="1109.7" transform="matrix(-1 -1.224647e-16 1.224647e-16 -1 9737.6533 3132.2092)" class="st8" width="367.4" height="912.9"/>
				
					<rect x="4674.7" y="1094" transform="matrix(-1 -1.224647e-16 1.224647e-16 -1 9737.6533 2213.738)" class="st8" width="388.2" height="25.8"/>
				
					<rect x="4697.5" y="1060.9" transform="matrix(-1 -1.224647e-16 1.224647e-16 -1 9737.6533 2244.5205)" class="st8" width="342.7" height="122.6"/>
				
					<rect x="4878.2" y="1010.8" transform="matrix(-1 -1.224647e-16 1.224647e-16 -1 9892.166 2155.5164)" class="st8" width="135.7" height="134"/>
				<polygon class="st8" points="4935.4,1048.5 5013.9,1048.5 5013.9,978 4957.6,978 				"/>
				
					<rect x="4974.7" y="919.4" transform="matrix(-1 -1.224647e-16 1.224647e-16 -1 9956.9424 1995.9956)" class="st8" width="7.6" height="157.1"/>
				<ellipse class="st8" cx="4978.5" cy="911.3" rx="6.8" ry="8.1"/>
			</g>
			<rect x="5002.2" y="1645.7" class="st8" width="164.4" height="376.9"/>
			<rect x="4533.9" y="1461.9" class="st8" width="187.5" height="560.6"/>
			<polygon class="st8" points="4627.7,2022.5 4363.6,2022.5 4363.6,1722.7 4586.6,1821.5 			"/>
			<rect x="5112.6" y="1859.7" class="st8" width="403.3" height="162.8"/>
			<rect x="5367" y="1372.5" class="st8" width="234.3" height="650"/>
			<rect x="5546.5" y="1901.2" class="st8" width="388.2" height="121.4"/>
			<rect x="5355" y="1360.6" class="st8" width="257" height="21.3"/>
			<rect x="5564.7" y="1268.9" class="st8" width="5.1" height="131"/>
			<rect x="5530.5" y="1285.5" class="st8" width="5.1" height="105.1"/>
			<polygon class="st8" points="5688,1617.4 5583.6,1617.4 5583.6,1915.2 5732.6,1915.2 			"/>
		</g>
	</g>
</g>
</svg>
