<?xml version="1.0" encoding="utf-8"?>
<!-- Generator: Adobe Illustrator 21.0.0, SVG Export Plug-In . SVG Version: 6.00 Build 0)  -->
<svg version="1.1" id="Layer_1" xmlns="http://www.w3.org/2000/svg" xmlns:xlink="http://www.w3.org/1999/xlink" x="0px" y="0px"
	 viewBox="0 0 4000 4000" style="enable-background:new 0 0 4000 4000;" xml:space="preserve">
<style type="text/css">
	.st0{fill:url(#SVGID_1_);}
	.st1{fill:none;stroke:#000000;stroke-width:5;stroke-miterlimit:10;}
	.st2{fill:url(#SVGID_2_);}
	.st3{clip-path:url(#SVGID_4_);}
	.st4{fill:#46508C;}
	.st5{opacity:0.29;fill:#46508C;}
	.st6{fill:#B5C3C2;}
	.st7{fill:#242849;}
	.st8{fill:#95A9A7;}
	.st9{fill:#0E101C;}
	.st10{opacity:0.29;fill:#0E101C;}
	.st11{fill:url(#SVGID_5_);}
	.st12{fill:url(#SVGID_6_);}
	.st13{fill:url(#SVGID_7_);}
	.st14{fill:url(#SVGID_8_);}
	.st15{fill:url(#SVGID_9_);}
	.st16{fill:url(#SVGID_10_);}
	.st17{fill:url(#SVGID_11_);}
	.st18{fill:url(#SVGID_12_);}
	.st19{fill:url(#SVGID_13_);}
	.st20{fill:#330867;}
	.st21{fill:#220567;}
	.st22{fill:#110367;}
	.st23{fill:#000067;}
	.st24{fill:#10458A;}
	.st25{fill:#208AAD;}
	.st26{fill:#30CFD0;}
	.st27{fill:url(#SVGID_14_);}
	.st28{fill:url(#SVGID_15_);}
	.st29{clip-path:url(#SVGID_17_);}
	.st30{fill:none;stroke:#208AAD;stroke-width:6;stroke-miterlimit:10;}
	.st31{display:none;fill:url(#SVGID_18_);}
</style>
<linearGradient id="SVGID_1_" gradientUnits="userSpaceOnUse" x1="6304.3926" y1="1144.8748" x2="6320.3926" y2="2088.8748">
	<stop  offset="0" style="stop-color:#30CFD0"/>
	<stop  offset="1" style="stop-color:#318DAD"/>
</linearGradient>
<path class="st0" d="M7267.9,2058.6c-1.5,135.9-23.4,436.3-237.9,374.4c-66.4-19.2-78.2-91.8-97-150.1
	c-26.6-82.5-50.3-169.6-112.7-233.4c-69.8-71.4-120.1-45.5-210.3-44.7c-85.1,0.7-171.5-4.9-257.2-4.8c-133.6,0.2-268.9-5.8-400.8-4
	c-186.9,2.5-209.6,211.6-264.7,347.4c-34.9,86.1-92.7,111.9-185.7,76.9c-74.7-28.2-97.8-93.9-112.6-169
	c-33.8-171.8-13.8-353.8,18.7-524.1c16.2-85,40.5-171.3,74-251.2c19.7-47,55.6-92,63-143c10.9-34.2,37.2-51.8,68.3-64.9
	c463.3-71.7,950.7-71.7,1414,0c30.9,13.6,58.8,28.6,68.3,64.9c13.2,91.8,82.5,187.4,108.7,278.9
	C7244.7,1753.7,7269.6,1911.1,7267.9,2058.6z"/>
<path class="st1" d="M2007.9,2546.5"/>
<linearGradient id="SVGID_2_" gradientUnits="userSpaceOnUse" x1="601.0274" y1="2553.7161" x2="3015.4673" y2="2553.7161">
	<stop  offset="0" style="stop-color:#B04C63"/>
	<stop  offset="1" style="stop-color:#611A2C"/>
</linearGradient>
<path class="st2" d="M2996,2681.7c-29.8,137.8-109.2,263.9-243.4,318.4c-140.4,57-286,15.5-407.8-65.9
	c-99-66.2-192-151.1-261.6-249.6c-10.3-14.6-18.9-30.3-25.9-46.7c-10.6-24.6-24.7-47.2-41.7-67.4c-49.3-58.5-123-95.9-205.4-96.4
	c-0.6,0-1.3,0-1.9,0c-78.9,0-150,33.7-199.5,87.6c-20.2,21.9-36.8,47.2-48.9,74.8c-6,13.7-12.9,27-21.2,39.4
	c-7.5,11.2-15.3,22.3-23.8,33.2c-91.6,118.2-220.6,231.6-360.5,287.4c-135.4,54-287.7,35.9-398.6-62.5
	c-96.8-85.8-136-218.3-149.1-342.9c-11.3-107.4-10.3-228.9,47.9-324.1c76-124.1,231.6-150.6,364-171.5
	c92.3-14.6,177.4-14.4,270.8-14.4h991.9c112.6,0,217.4-1.1,328.6,16.3c144.4,22.6,305.7,59.1,370.1,206.1
	C3031.2,2420.4,3018.1,2559.4,2996,2681.7z"/>
<g>
	<defs>
		<path id="SVGID_3_" d="M3015.9,2474.2h-0.3c2.2,70-7.2,141.3-19.2,207.7c-29.8,137.8-109.2,263.9-243.4,318.4
			c-140.4,57-286,15.6-407.8-65.9c-99-66.2-192-151.1-261.7-249.6c-10.3-14.6-18.9-30.3-25.9-46.7c-10.6-24.6-24.7-47.2-41.7-67.4
			c-49.3-58.5-123-95.9-205.4-96.5h-1.9c-78.9,0-150,33.7-199.5,87.6c-20.2,21.9-36.7,47.1-48.9,74.8c-6,13.7-12.9,27-21.3,39.4
			c-7.5,11.2-15.3,22.3-23.8,33.2c-91.6,118.2-220.6,231.6-360.5,287.4c-135.4,54-287.7,35.9-398.6-62.5
			c-96.8-85.8-136-218.3-149.1-342.9c-4-37.8-6.4-77.4-5.4-117h-0.2v-781.6h2414.4V2474.2z"/>
	</defs>
	<clipPath id="SVGID_4_">
		<use xlink:href="#SVGID_3_"  style="overflow:visible;"/>
	</clipPath>
	<g class="st3">
		<g>
			<g>
				<rect x="1453.4" y="2086.4" class="st4" width="190.6" height="758.8"/>
				<rect x="1484.5" y="2032" class="st4" width="128.3" height="318.9"/>
				<rect x="1513.1" y="1997.4" class="st4" width="71.2" height="176.9"/>
				<polygon class="st4" points="1572.9,2088.3 1524.4,2088.3 1524.4,1967.8 1541.9,1967.8 1559.3,1967.8 1572.9,1967.8 				"/>
				<g>
					<polygon class="st4" points="1545.5,2035.8 1540.2,2035.8 1540.2,1915.3 1542.1,1915.3 1544,1915.3 1545.5,1915.3 					"/>
					<polygon class="st4" points="1557.1,1994.2 1551.9,1994.2 1551.9,1873.6 1553.8,1873.6 1555.6,1873.6 1557.1,1873.6 					"/>
				</g>
				<rect x="1448.3" y="2084.4" class="st4" width="200.8" height="8.1"/>
				<rect x="1479.8" y="2028.1" class="st4" width="137.7" height="7.8"/>
				<rect x="1507.9" y="1994.2" class="st4" width="79.4" height="6"/>
				<rect x="1496.3" y="2044.9" class="st5" width="6" height="33.4"/>
				<rect x="1512.8" y="2044.9" class="st5" width="6" height="33.4"/>
				<rect x="1529.3" y="2044.9" class="st5" width="6" height="33.4"/>
				<rect x="1545.8" y="2044.9" class="st5" width="6" height="33.4"/>
				<rect x="1562.3" y="2044.9" class="st5" width="6" height="33.4"/>
				<rect x="1578.8" y="2044.9" class="st5" width="6" height="33.4"/>
				<rect x="1595.4" y="2044.9" class="st5" width="6" height="33.4"/>
				<rect x="1470.1" y="2116.6" class="st4" width="14.4" height="39.6"/>
				<rect x="1498.6" y="2116.6" class="st5" width="14.4" height="39.6"/>
				<rect x="1527.2" y="2116.6" class="st4" width="14.4" height="39.6"/>
				<rect x="1555.7" y="2116.6" class="st4" width="14.4" height="39.6"/>
				<rect x="1584.3" y="2116.6" class="st4" width="14.4" height="39.6"/>
				<rect x="1612.8" y="2116.6" class="st4" width="14.4" height="39.6"/>
				<rect x="1470.1" y="2178.4" class="st4" width="14.4" height="39.6"/>
				<rect x="1498.6" y="2178.4" class="st4" width="14.4" height="39.6"/>
				<rect x="1527.2" y="2178.4" class="st4" width="14.4" height="39.6"/>
				<rect x="1555.7" y="2178.4" class="st5" width="14.4" height="39.6"/>
				<rect x="1584.3" y="2178.4" class="st4" width="14.4" height="39.6"/>
				<rect x="1612.8" y="2178.4" class="st4" width="14.4" height="39.6"/>
				<rect x="1470.1" y="2240.2" class="st4" width="14.4" height="39.6"/>
				<rect x="1498.6" y="2240.2" class="st4" width="14.4" height="39.6"/>
				<rect x="1527.2" y="2240.2" class="st4" width="14.4" height="39.6"/>
				<rect x="1555.7" y="2240.2" class="st4" width="14.4" height="39.6"/>
				<rect x="1584.3" y="2240.2" class="st5" width="14.4" height="39.6"/>
				<rect x="1612.8" y="2240.2" class="st5" width="14.4" height="39.6"/>
				<rect x="1470.1" y="2302" class="st5" width="14.4" height="39.6"/>
				<rect x="1498.6" y="2302" class="st4" width="14.4" height="39.6"/>
				<rect x="1527.2" y="2302" class="st4" width="14.4" height="39.6"/>
				<rect x="1555.7" y="2302" class="st4" width="14.4" height="39.6"/>
				<rect x="1584.3" y="2302" class="st4" width="14.4" height="39.6"/>
				<rect x="1612.8" y="2302" class="st4" width="14.4" height="39.6"/>
				<rect x="1470.1" y="2363.8" class="st4" width="14.4" height="39.6"/>
				<rect x="1498.6" y="2363.8" class="st5" width="14.4" height="39.6"/>
				<rect x="1527.2" y="2363.8" class="st4" width="14.4" height="39.6"/>
				<rect x="1555.7" y="2363.8" class="st5" width="14.4" height="39.6"/>
				<rect x="1584.3" y="2363.8" class="st4" width="14.4" height="39.6"/>
				<rect x="1612.8" y="2363.8" class="st4" width="14.4" height="39.6"/>
				<rect x="1470.1" y="2425.6" class="st4" width="14.4" height="39.6"/>
				<rect x="1498.6" y="2425.6" class="st4" width="14.4" height="39.6"/>
				<rect x="1527.2" y="2425.6" class="st4" width="14.4" height="39.6"/>
				<rect x="1555.7" y="2425.6" class="st4" width="14.4" height="39.6"/>
				<rect x="1584.3" y="2425.6" class="st4" width="14.4" height="39.6"/>
				<rect x="1612.8" y="2425.6" class="st5" width="14.4" height="39.6"/>
				<rect x="1470.1" y="2487.4" class="st4" width="14.4" height="39.6"/>
				<rect x="1498.6" y="2487.4" class="st5" width="14.4" height="39.6"/>
				<rect x="1527.2" y="2487.4" class="st5" width="14.4" height="39.6"/>
				<rect x="1555.7" y="2487.4" class="st4" width="14.4" height="39.6"/>
				<rect x="1584.3" y="2487.4" class="st4" width="14.4" height="39.6"/>
				<rect x="1612.8" y="2487.4" class="st4" width="14.4" height="39.6"/>
				<rect x="1470.1" y="2549.1" class="st4" width="14.4" height="39.6"/>
				<rect x="1498.6" y="2549.1" class="st4" width="14.4" height="39.6"/>
				<rect x="1527.2" y="2549.1" class="st4" width="14.4" height="39.6"/>
				<rect x="1555.7" y="2549.1" class="st4" width="14.4" height="39.6"/>
				<rect x="1584.3" y="2549.1" class="st5" width="14.4" height="39.6"/>
				<rect x="1612.8" y="2549.1" class="st4" width="14.4" height="39.6"/>
				<rect x="1470.1" y="2610.9" class="st4" width="14.4" height="39.6"/>
				<rect x="1498.6" y="2610.9" class="st5" width="14.4" height="39.6"/>
				<rect x="1527.2" y="2610.9" class="st4" width="14.4" height="39.6"/>
				<rect x="1555.7" y="2610.9" class="st4" width="14.4" height="39.6"/>
				<rect x="1584.3" y="2610.9" class="st4" width="14.4" height="39.6"/>
				<rect x="1612.8" y="2610.9" class="st4" width="14.4" height="39.6"/>
				<rect x="1470.1" y="2672.7" class="st4" width="14.4" height="39.6"/>
				<rect x="1498.6" y="2672.7" class="st4" width="14.4" height="39.6"/>
				<rect x="1527.2" y="2672.7" class="st4" width="14.4" height="39.6"/>
				<rect x="1555.7" y="2672.7" class="st5" width="14.4" height="39.6"/>
				<rect x="1584.3" y="2672.7" class="st4" width="14.4" height="39.6"/>
				<rect x="1612.8" y="2672.7" class="st5" width="14.4" height="39.6"/>
				<rect x="1470.1" y="2734.5" class="st5" width="14.4" height="39.6"/>
				<rect x="1498.6" y="2734.5" class="st4" width="14.4" height="39.6"/>
				<rect x="1527.2" y="2734.5" class="st5" width="14.4" height="39.6"/>
				<rect x="1555.7" y="2734.5" class="st4" width="14.4" height="39.6"/>
				<rect x="1584.3" y="2734.5" class="st4" width="14.4" height="39.6"/>
				<rect x="1612.8" y="2734.5" class="st4" width="14.4" height="39.6"/>
			</g>
			<g>
				<rect x="899.7" y="2115.2" class="st4" width="306.4" height="639.2"/>
				<rect x="891" y="2104.2" class="st4" width="323.9" height="18.1"/>
				<rect x="910" y="2081.1" class="st4" width="285.8" height="85.9"/>
				<rect x="931.9" y="2046" class="st4" width="113.2" height="93.8"/>
				<polygon class="st4" points="997.4,2072.4 931.9,2072.4 931.9,2023 978.9,2023 				"/>
				<rect x="958.3" y="1982" class="st4" width="6.3" height="110"/>
				<circle class="st4" cx="961.5" cy="1976.3" r="5.7"/>
			</g>
			<polygon class="st6" points="3743.8,2803.1 3408.4,2803.1 3366.5,1863.3 3743.8,1941.6 			"/>
			<polygon class="st4" points="2280.3,2266.4 2280.3,1952.2 2227.7,1952.2 2227.7,1868 2208.9,1868 2208.9,1744.6 2105.4,1744.6 
				2105.4,1653.8 2096.2,1653.8 2096.2,1744.6 2075.9,1744.6 2075.9,1631 2066.7,1631 2066.7,1744.6 2001.2,1744.6 2001.2,1952.2 
				1967.4,1952.2 1967.4,2266.4 1938.4,2266.4 1938.4,2838.7 2300.7,2838.7 2300.7,2266.4 			"/>
		</g>
		<rect x="471.4" y="2791.5" class="st6" width="4008" height="95.3"/>
		<polygon class="st7" points="2830.6,2863.4 2653.2,2863.4 2722.3,2508 2830.6,2508 		"/>
		<g>
			<rect x="327.6" y="2877.3" class="st7" width="4208.2" height="150.3"/>
			<polygon class="st7" points="2685.2,2205.8 2685.2,2048.3 2628.2,2048.3 2628.2,1988.3 2597.7,1988.3 2597.7,1938 2587,1938 
				2587,1851.6 2584.3,1851.6 2584.3,1938 2573.6,1938 2573.6,1988.3 2543.1,1988.3 2543.1,2048.3 2486.5,2048.3 2486.5,2205.8 
				2474.8,2205.8 2474.8,2491.7 2387.1,2491.7 2387.1,2817.6 2474.8,2817.6 2562.5,2817.6 2696.5,2817.6 2696.5,2205.8 			"/>
			<polygon class="st7" points="3012.7,2386.7 2736.9,2386.7 2736.9,2391.7 2749.4,2391.7 2749.4,2858.1 3000.2,2858.1 
				3000.2,2391.7 3012.7,2391.7 			"/>
			<rect x="1510.4" y="2502.8" class="st7" width="244.6" height="388.5"/>
			<rect x="1052.9" y="2701.9" class="st7" width="420.6" height="189.5"/>
			<rect x="1278.4" y="2278.6" class="st7" width="92.3" height="465.3"/>
			<rect x="1298.8" y="2154.5" class="st7" width="4.8" height="253"/>
			<rect x="1314.3" y="2173.7" class="st7" width="4.8" height="253"/>
			<rect x="1285.5" y="2249.8" class="st7" width="56.4" height="62.4"/>
			<rect x="1457" y="2572.4" class="st7" width="160.7" height="319"/>
			<rect x="1794.6" y="2234.8" class="st7" width="301.6" height="656.5"/>
			<rect x="1824.2" y="2212.3" class="st7" width="242.4" height="109.3"/>
			<rect x="1771.2" y="2248.6" class="st7" width="348.4" height="7.7"/>
			<rect x="1739.9" y="2559.8" class="st7" width="142.1" height="331.6"/>
			<rect x="722" y="2547.2" class="st7" width="163.1" height="344.2"/>
			<g>
				<rect x="774.7" y="2453.7" class="st7" width="325" height="437.7"/>
				<rect x="755.8" y="2436.9" class="st7" width="352.3" height="16.8"/>
				<rect x="789.1" y="2391.3" class="st7" width="142.8" height="88.7"/>
				<rect x="978.6" y="2391.3" class="st7" width="24" height="54"/>
				<rect x="1026.5" y="2391.3" class="st7" width="26.4" height="54"/>
			</g>
			<rect x="633.2" y="2758.3" class="st7" width="170.3" height="133.1"/>
			<rect x="568.9" y="2701.9" class="st7" width="80.6" height="189.5"/>
			<rect x="471.4" y="2824.8" class="st7" width="137.8" height="66.6"/>
			<rect x="2066.6" y="2743.9" class="st7" width="1698" height="147.5"/>
			<path class="st8" d="M3629,2335.6c-10.7,0-19.5,8.2-20.3,18.7l-23.9-0.8c0.1-2.3,0.1-4.7,0.1-7c0-29.7-5.1-58.7-15-85.9l20-7.4
				c3.1,7.2,10.3,12.3,18.7,12.3c11.3,0,20.4-9.1,20.4-20.4c0-11.3-9.1-20.4-20.4-20.4c-11.3,0-20.4,9.1-20.4,20.4
				c0,2.1,0.3,4.1,0.9,6l-20,7.3c-11.4-30.5-28.7-58.7-51.4-83.1l15.6-14.6c3.7,3.5,8.6,5.7,14.1,5.7c11.3,0,20.4-9.1,20.4-20.4
				c0-11.3-9.1-20.4-20.4-20.4s-20.4,9.1-20.4,20.4c0,5,1.8,9.6,4.8,13.1l-15.6,14.6c-1.6-1.7-3.2-3.4-4.9-5
				c-23.7-23.7-51.2-42-81.2-54.5l8.6-20.9c1.9,0.6,4,1,6.2,1c11.3,0,20.4-9.1,20.4-20.4c0-11.3-9.1-20.4-20.4-20.4
				c-11.3,0-20.4,9.1-20.4,20.4c0,8.3,5,15.5,12.1,18.6l-8.6,20.9c-26.8-10.9-55.6-17.1-85.2-18.1l0.9-28.6c0.2,0,0.4,0,0.6,0
				c11.3,0,20.4-9.1,20.4-20.4s-9.1-20.4-20.4-20.4c-11.3,0-20.4,9.1-20.4,20.4c0,10.3,7.6,18.8,17.5,20.2l-0.9,28.7
				c-2.3-0.1-4.7-0.1-7-0.1c-28.5,0-56.4,4.7-82.6,13.8l-8.2-23.3c7.4-3.1,12.6-10.4,12.6-18.9c0-11.3-9.1-20.4-20.4-20.4
				c-11.3,0-20.4,9.1-20.4,20.4s9.1,20.4,20.4,20.4c1.9,0,3.8-0.3,5.6-0.8l8.2,23.4c-31.8,11.3-61.1,29.1-86.4,52.6l-14.9-15.9
				c3.3-3.6,5.4-8.5,5.4-13.8c0-11.3-9.1-20.4-20.4-20.4c-11.3,0-20.4,9.1-20.4,20.4c0,11.3,9.1,20.4,20.4,20.4
				c5.1,0,9.8-1.9,13.4-5l14.9,15.9c-1.7,1.6-3.4,3.2-5,4.9c-21,21-37.9,45.2-50.1,71.3l-19-8.7c0.7-2,1.1-4.2,1.1-6.5
				c0-11.3-9.1-20.4-20.4-20.4s-20.4,9.1-20.4,20.4s9.1,20.4,20.4,20.4c8.2,0,15.3-4.8,18.5-11.8l18.8,8.7
				c-13.5,29.6-21.2,61.8-22.4,95.1l-24.3-0.8c-0.3-11-9.3-19.8-20.4-19.8c-11.3,0-20.4,9.1-20.4,20.4c0,11.3,9.1,20.4,20.4,20.4
				c10.7,0,19.5-8.2,20.3-18.7l24.3,0.8c-0.1,2.3-0.1,4.7-0.1,7c0,29.7,5.1,58.7,15,85.9l-20,7.4c-3.1-7.2-10.3-12.3-18.7-12.3
				c-11.3,0-20.4,9.1-20.4,20.4s9.1,20.4,20.4,20.4s20.4-9.1,20.4-20.4c0-2.1-0.3-4.1-0.9-6l20-7.3c11.4,30.5,28.7,58.7,51.4,83.1
				l-15.6,14.6c-3.7-3.5-8.6-5.7-14.1-5.7c-11.3,0-20.4,9.1-20.4,20.4c0,11.3,9.1,20.4,20.4,20.4c11.3,0,20.4-9.1,20.4-20.4
				c0-5-1.8-9.6-4.8-13.1l15.6-14.6c1.6,1.7,3.2,3.4,4.9,5c15.9,15.9,33.6,29.5,52.6,40.4l-123,226.8h-22.1v6.5h-10.8v12.9h562.2
				v-12.9h-10.8v-6.5h-22.1l-123-226.8c16.4-9.4,31.8-20.8,45.9-33.9l19.9,21.3c-4.3,3.7-7,9.2-7,15.4c0,11.3,9.1,20.4,20.4,20.4
				s20.4-9.1,20.4-20.4c0-11.3-9.1-20.4-20.4-20.4c-4.3,0-8.3,1.3-11.6,3.6l-20.1-21.4c1.7-1.6,3.4-3.2,5-4.9
				c21-21,37.9-45.2,50.1-71.3l22.2,10.3c-0.4,1.6-0.6,3.3-0.6,5c0,11.3,9.1,20.4,20.4,20.4c11.3,0,20.4-9.1,20.4-20.4
				c0-11.3-9.1-20.4-20.4-20.4c-8.7,0-16.2,5.5-19.1,13.2l-21.9-10.1c13.5-29.6,21.2-61.8,22.4-95.1l23.9,0.8
				c0.3,11,9.3,19.9,20.4,19.9c11.3,0,20.4-9.1,20.4-20.4S3640.3,2335.6,3629,2335.6z M3578.1,2346.5c0,2.3,0,4.5-0.1,6.8l-70.4-2.3
				c0-1.5,0.1-3,0.1-4.5c0-20.7-3.7-40.7-10.3-59.1l66.2-24.4C3573.1,2289.4,3578.1,2317.5,3578.1,2346.5z M3504.2,2350.9l-157-5.1
				c-0.1-1-0.2-2-0.5-3l147.5-54.3c6.5,18.1,10.1,37.6,10.1,57.9C3504.2,2347.9,3504.2,2349.4,3504.2,2350.9z M3162.7,2342l157,5.1
				c0.1,1,0.2,2,0.5,3l-147.5,54.3c-6.5-18.1-10.1-37.6-10.1-57.9C3162.6,2345,3162.7,2343.5,3162.7,2342z M3344.2,2337.9
				l114.6-107.4c14.9,16.1,26.7,35,34.5,55.8l-147.4,54.3C3345.4,2339.7,3344.9,2338.8,3344.2,2337.9z M3342.6,2336.3
				c-0.9-0.8-1.9-1.5-3-2l59.7-145.3c22,9.2,41.7,23,57.9,40L3342.6,2336.3z M3337.6,2333.4c-0.8-0.3-1.7-0.4-2.6-0.5l5.1-157
				c20.1,0.8,39.4,5.1,57.1,12.2L3337.6,2333.4z M3332.8,2332.8c-1,0-1.9,0.2-2.8,0.4l-52.2-148.2c17.5-6,36.2-9.3,55.7-9.3
				c1.5,0,2.9,0,4.4,0.1L3332.8,2332.8z M3327.8,2333.9c-1,0.5-2,1.1-2.9,1.8l-107.4-114.6c16.6-15.4,36.3-27.5,58.1-35.4
				L3327.8,2333.9z M3323.3,2337.3c-0.7,0.7-1.3,1.6-1.8,2.4l-142.6-65.8c9.1-19.3,21.7-36.7,37-51.2L3323.3,2337.3z M3320.6,2341.8
				c-0.4,1-0.6,2-0.7,3.1l-157-5.1c0.9-22.7,6.2-44.3,15.1-63.9L3320.6,2341.8z M3321,2352.3c0.4,0.8,0.8,1.5,1.3,2.2l-0.9,1.7
				l-113.3,106.2c-14.9-16.1-26.7-35-34.5-55.8L3321,2352.3z M3318,2362.5l-71.1,131.1c-13.7-8.1-26.3-18.1-37.2-29.6L3318,2362.5z
				 M3325.7,2357.8c0.5,0.3,1,0.6,1.5,0.9l-59.7,145.3c-5.7-2.4-11.3-5.1-16.7-8.1L3325.7,2357.8z M3329.3,2359.5
				c0.8,0.3,1.7,0.4,2.6,0.5l-5.1,157c-20.1-0.8-39.4-5.1-57.1-12.2L3329.3,2359.5z M3333.4,2517.3c-1.5,0-2.9,0-4.4-0.1l5.1-157
				c1,0,1.9-0.2,2.8-0.4l52.2,148.2C3371.7,2514,3352.9,2517.3,3333.4,2517.3z M3339.1,2359c0.8-0.3,1.5-0.7,2.1-1.2l74.9,138.1
				c-7.9,4.4-16.2,8.2-24.8,11.3L3339.1,2359z M3351.7,2367.6l97.7,104.2c-8.9,8.3-18.7,15.6-29.3,21.8L3351.7,2367.6z
				 M3347.4,2359.7l-2.8-5.2c0.3-0.4,0.6-0.8,0.8-1.3l142.6,65.8c-9.1,19.3-21.7,36.7-37,51.2L3347.4,2359.7z M3346.3,2351.2
				c0.4-1,0.6-2,0.7-3.1l157,5.1c-0.9,22.7-6.2,44.3-15.1,63.9L3346.3,2351.2z M3266.2,2507.2l-26.8,65.3
				c-8.2-3.4-16.2-7.3-23.9-11.5l33.7-62C3254.7,2501.9,3260.4,2504.7,3266.2,2507.2z M3268.3,2508c18.1,7.3,37.8,11.7,58.3,12.5
				l-2.3,70.4c-28.8-1-56.8-7.1-82.9-17.6L3268.3,2508z M3328.9,2520.6c1.5,0,3,0.1,4.5,0.1c19.9,0,39-3.4,56.8-9.5l23.5,66.5
				c-25.5,8.8-52.5,13.4-80.3,13.4c-2.3,0-4.5,0-6.8-0.1L3328.9,2520.6z M3392.4,2510.4c8.8-3.2,17.2-7,25.3-11.5l33.7,62
				c-11.4,6.3-23.3,11.6-35.5,16L3392.4,2510.4z M3562.7,2260.8l-66.2,24.4c-8-21.3-20.1-40.6-35.3-57l51.5-48.2
				C3534.8,2203.8,3551.7,2231.2,3562.7,2260.8z M3506.4,2173.5c1.6,1.6,3.2,3.2,4.8,4.9l-51.5,48.2c-16.5-17.4-36.6-31.4-59.1-40.8
				l26.8-65.3C3456.6,2132.6,3483.4,2150.5,3506.4,2173.5z M3425.4,2119.6l-26.8,65.3c-18.1-7.3-37.8-11.7-58.3-12.5l2.3-70.4
				C3371.3,2103,3399.3,2109,3425.4,2119.6z M3333.4,2101.8c2.3,0,4.5,0,6.8,0.1l-2.3,70.4c-1.5,0-3-0.1-4.5-0.1
				c-19.9,0-39,3.4-56.8,9.5l-23.5-66.5C3278.6,2106.4,3305.7,2101.8,3333.4,2101.8z M3251,2116l23.5,66.6
				c-22.2,8-42.3,20.4-59.2,36.1l-48.2-51.5C3191.6,2144.3,3220.1,2127,3251,2116z M3160.5,2173.5c1.6-1.6,3.2-3.2,4.9-4.8
				l48.2,51.5c-15.6,14.8-28.5,32.5-37.8,52.2l-64.1-29.6C3123.6,2217.4,3140,2193.9,3160.5,2173.5z M3110.7,2244.9l64.1,29.6
				c-9.1,20-14.5,42-15.4,65.2l-70.4-2.3C3090.1,2305,3097.6,2273.7,3110.7,2244.9z M3088.8,2346.5c0-2.3,0-4.5,0.1-6.8l70.4,2.3
				c0,1.5-0.1,3-0.1,4.5c0,20.7,3.7,40.7,10.3,59.1l-66.2,24.4C3093.8,2403.6,3088.8,2375.4,3088.8,2346.5z M3104.1,2432.1
				l66.2-24.4c8,21.3,20.1,40.6,35.3,57l-51.5,48.2C3132.1,2489.2,3115.2,2461.8,3104.1,2432.1z M3160.5,2519.5
				c-1.6-1.6-3.2-3.2-4.8-4.9l51.5-48.2c11.2,11.8,24,22,38,30.3l-33.7,62.1C3193.1,2548,3175.9,2534.9,3160.5,2519.5z
				 M3576.5,2791.5h-486.1l121.8-224.6c8,4.4,16.2,8.4,24.6,11.9l-8.6,20.9c-1.9-0.6-4-1-6.2-1c-11.3,0-20.4,9.1-20.4,20.4
				c0,11.3,9.1,20.4,20.4,20.4s20.4-9.1,20.4-20.4c0-8.3-5-15.5-12.1-18.6l8.6-20.9c26.8,10.9,55.6,17.1,85.2,18.1l-0.7,21.4
				c-11.1,0.3-19.9,9.3-19.9,20.4c0,11.3,9.1,20.4,20.4,20.4s20.4-9.1,20.4-20.4c0-10.7-8.2-19.4-18.6-20.3l0.7-21.4
				c2.3,0.1,4.7,0.1,7,0.1c28.5,0,56.4-4.7,82.6-13.8l7.3,20.8c-6.9,3.3-11.8,10.3-11.8,18.5c0,11.3,9.1,20.4,20.4,20.4
				c11.3,0,20.4-9.1,20.4-20.4c0-11.3-9.1-20.4-20.4-20.4c-2.3,0-4.5,0.4-6.5,1.1l-7.3-20.7c12.6-4.5,24.8-10,36.5-16.5
				L3576.5,2791.5z M3455.4,2558.7l-33.7-62.1c10.8-6.4,20.8-13.9,30-22.3l48.2,51.5C3486.2,2538.5,3471.2,2549.5,3455.4,2558.7z
				 M3506.4,2519.5c-1.6,1.6-3.2,3.2-4.9,4.8l-48.2-51.5c15.6-14.8,28.5-32.5,37.8-52.2l64.1,29.6
				C3543.3,2475.5,3526.9,2499,3506.4,2519.5z M3556.1,2448l-64.1-29.6c9.1-20,14.5-42,15.4-65.2l70.4,2.3
				C3576.7,2387.9,3569.3,2419.2,3556.1,2448z"/>
			<rect x="3678.3" y="2507.2" class="st8" width="262.2" height="384.2"/>
			<rect x="3902.1" y="2656.5" class="st8" width="262.2" height="232.7"/>
			<rect x="2885.2" y="2622.4" class="st7" width="147.1" height="195.2"/>
			<rect x="3809.4" y="2141.8" class="st8" width="185.5" height="749.6"/>
			<polygon class="st8" points="4300.2,2891.4 4055.6,2891.4 4055.6,2453.7 4241.1,2453.7 			"/>
			<rect x="4193.1" y="2791.5" class="st8" width="214.2" height="99.9"/>
			<rect x="3946.9" y="1985.2" class="st8" width="6.4" height="203.7"/>
			<rect x="3968.5" y="2028.9" class="st8" width="6.4" height="203.7"/>
			<rect x="3927.3" y="2057" class="st8" width="6.4" height="203.7"/>
			<rect x="4065.2" y="2418.3" class="st8" width="87.5" height="69"/>
			<rect x="4074.8" y="2393.7" class="st8" width="68.4" height="38.8"/>
			<rect x="4187.5" y="2438.5" class="st8" width="16.8" height="27.8"/>
			<rect x="4210.2" y="2413.1" class="st8" width="24" height="53.2"/>
		</g>
		<g>
			<g>
				<rect x="2884.5" y="2310.9" class="st9" width="222.3" height="716.7"/>
				<rect x="2867.9" y="2315.1" class="st9" width="255.6" height="7.3"/>
				<rect x="2874.8" y="2415.8" class="st9" width="241.7" height="7.2"/>
				<rect x="2874.8" y="2513.3" class="st9" width="241.7" height="7.2"/>
				<rect x="2874.8" y="2610.8" class="st9" width="241.7" height="7.2"/>
				<rect x="2874.8" y="2708.3" class="st9" width="241.7" height="7.2"/>
				<rect x="2874.8" y="2805.8" class="st9" width="241.7" height="7.2"/>
				<rect x="2874.8" y="2903.3" class="st9" width="241.7" height="7.2"/>
				<rect x="2859.4" y="2295.3" class="st9" width="272.5" height="19.8"/>
				<rect x="2904.5" y="2345.9" class="st10" width="23.1" height="57.3"/>
				<rect x="2956.2" y="2345.9" class="st9" width="23.1" height="57.3"/>
				<rect x="3007.8" y="2345.9" class="st9" width="23.1" height="57.3"/>
				<rect x="3059.5" y="2345.9" class="st9" width="23.1" height="57.3"/>
				<rect x="2904.5" y="2439.5" class="st9" width="23.1" height="57.3"/>
				<rect x="2956.2" y="2439.5" class="st10" width="23.1" height="57.3"/>
				<rect x="3007.8" y="2439.5" class="st9" width="23.1" height="57.3"/>
				<rect x="3059.5" y="2439.5" class="st9" width="23.1" height="57.3"/>
				<rect x="2904.5" y="2537" class="st9" width="23.1" height="57.3"/>
				<rect x="2956.2" y="2537" class="st9" width="23.1" height="57.3"/>
				<rect x="3007.8" y="2537" class="st9" width="23.1" height="57.3"/>
				<rect x="3059.5" y="2537" class="st10" width="23.1" height="57.3"/>
				<rect x="2904.5" y="2634.5" class="st9" width="23.1" height="57.3"/>
				<rect x="2956.2" y="2634.5" class="st10" width="23.1" height="57.3"/>
				<rect x="3007.8" y="2634.5" class="st10" width="23.1" height="57.3"/>
				<rect x="3059.5" y="2634.5" class="st9" width="23.1" height="57.3"/>
				<rect x="2904.5" y="2732" class="st10" width="23.1" height="57.3"/>
				<rect x="2956.2" y="2732" class="st9" width="23.1" height="57.3"/>
				<rect x="3007.8" y="2732" class="st9" width="23.1" height="57.3"/>
				<rect x="3059.5" y="2732" class="st9" width="23.1" height="57.3"/>
				<rect x="2904.5" y="2829.5" class="st9" width="23.1" height="57.3"/>
				<rect x="2956.2" y="2829.5" class="st9" width="23.1" height="57.3"/>
				<rect x="3007.8" y="2829.5" class="st10" width="23.1" height="57.3"/>
				<rect x="3059.5" y="2829.5" class="st9" width="23.1" height="57.3"/>
				<rect x="2904.5" y="2927" class="st9" width="23.1" height="57.3"/>
				<rect x="2956.2" y="2927" class="st10" width="23.1" height="57.3"/>
				<rect x="3007.8" y="2927" class="st9" width="23.1" height="57.3"/>
				<rect x="3059.5" y="2927" class="st10" width="23.1" height="57.3"/>
				<rect x="2898.5" y="2268" class="st9" width="75.6" height="37.2"/>
				<rect x="2893.4" y="2267" class="st9" width="85.9" height="6.4"/>
			</g>
			<g>
				<polygon class="st9" points="2565.8,3027.6 2269.6,3027.6 2269.6,2346.6 2565.8,2274.2 				"/>
				<rect x="2256.6" y="2334.6" class="st9" width="26" height="692.9"/>
				<rect x="2330.7" y="2315.1" class="st9" width="26" height="712.5"/>
				<rect x="2404.7" y="2294.8" class="st9" width="26" height="732.7"/>
				<rect x="2478.7" y="2278.3" class="st9" width="26" height="749.3"/>
				<rect x="2552.8" y="2260.7" class="st9" width="26" height="766.8"/>
				<rect x="2289.4" y="2392.8" class="st10" width="34.5" height="52.6"/>
				<rect x="2363.4" y="2392.8" class="st10" width="34.5" height="52.6"/>
				<rect x="2437.5" y="2392.8" class="st9" width="34.5" height="52.6"/>
				<rect x="2511.5" y="2392.8" class="st10" width="34.5" height="52.6"/>
				<rect x="2289.4" y="2484.4" class="st9" width="34.5" height="52.6"/>
				<rect x="2363.4" y="2484.4" class="st9" width="34.5" height="52.6"/>
				<rect x="2437.5" y="2484.4" class="st10" width="34.5" height="52.6"/>
				<rect x="2511.5" y="2484.4" class="st10" width="34.5" height="52.6"/>
				<rect x="2289.4" y="2576.1" class="st10" width="34.5" height="52.6"/>
				<rect x="2363.4" y="2576.1" class="st10" width="34.5" height="52.6"/>
				<rect x="2437.5" y="2576.1" class="st10" width="34.5" height="52.6"/>
				<rect x="2511.5" y="2576.1" class="st9" width="34.5" height="52.6"/>
				<rect x="2289.4" y="2667.7" class="st10" width="34.5" height="52.6"/>
				<rect x="2363.4" y="2667.7" class="st9" width="34.5" height="52.6"/>
				<rect x="2437.5" y="2667.7" class="st10" width="34.5" height="52.6"/>
				<rect x="2511.5" y="2667.7" class="st10" width="34.5" height="52.6"/>
				<rect x="2289.4" y="2759.3" class="st10" width="34.5" height="52.6"/>
				<rect x="2363.4" y="2759.3" class="st10" width="34.5" height="52.6"/>
				<rect x="2437.5" y="2759.3" class="st9" width="34.5" height="52.6"/>
				<rect x="2511.5" y="2759.3" class="st10" width="34.5" height="52.6"/>
				<rect x="2289.4" y="2851" class="st9" width="34.5" height="52.6"/>
				<rect x="2363.4" y="2851" class="st9" width="34.5" height="52.6"/>
				<rect x="2437.5" y="2851" class="st10" width="34.5" height="52.6"/>
				<rect x="2511.5" y="2851" class="st10" width="34.5" height="52.6"/>
				<rect x="2289.4" y="2942.6" class="st10" width="34.5" height="52.6"/>
				<rect x="2363.4" y="2942.6" class="st9" width="34.5" height="52.6"/>
				<rect x="2437.5" y="2942.6" class="st10" width="34.5" height="52.6"/>
				<rect x="2511.5" y="2942.6" class="st9" width="34.5" height="52.6"/>
			</g>
			<polygon class="st9" points="1424.7,2379.2 1424.7,2386.3 1417.7,2386.3 1417.7,2406.5 1541.6,2406.5 1541.6,3027.6 
				1338.2,3027.6 1338.2,2438.9 1338.2,2406.5 1338.2,2386.3 1330.9,2386.3 1330.9,2379.2 			"/>
			<rect x="1771.2" y="2661.4" class="st9" width="174.2" height="366.2"/>
			<g>
				<rect x="1011.9" y="2577.4" class="st9" width="141.6" height="450.1"/>
				<rect x="1125.5" y="2671.2" class="st9" width="154.3" height="356.4"/>
				<rect x="1062.9" y="2559.4" class="st9" width="62.6" height="53.9"/>
				<rect x="1136.1" y="2665.3" class="st9" width="164.5" height="13.2"/>
			</g>
			<rect x="1263.2" y="2824.1" class="st9" width="173" height="203.5"/>
			<rect x="704.1" y="2658.5" class="st9" width="140.7" height="369"/>
			<rect x="582" y="2842.4" class="st9" width="185.1" height="185.1"/>
			<rect x="378.1" y="2812.2" class="st9" width="115.8" height="215.4"/>
			<rect x="471.4" y="2960.1" class="st9" width="273.7" height="67.5"/>
			<rect x="273.3" y="2938.3" class="st9" width="140.3" height="89.3"/>
			<rect x="844.8" y="2891.4" class="st9" width="218.1" height="136.2"/>
			<rect x="1484.5" y="2968.9" class="st9" width="339.7" height="58.7"/>
			<rect x="2086.8" y="2968.9" class="st9" width="339.7" height="58.7"/>
			<polygon class="st9" points="1811,2796.6 1681.9,2796.6 1627.3,2998.2 1811,2998.2 			"/>
			<rect x="1870.6" y="2503.3" class="st9" width="3.6" height="223.6"/>
			<rect x="1888.6" y="2579" class="st9" width="4.8" height="132"/>
			<rect x="1862.9" y="2602.4" class="st9" width="65.3" height="65.3"/>
			<rect x="1851.9" y="2597.3" class="st9" width="86.5" height="5.9"/>
			<rect x="1913.7" y="2838.7" class="st9" width="211.1" height="188.9"/>
			<rect x="2084.4" y="2630.8" class="st9" width="135.6" height="364.5"/>
			<rect x="2614" y="2699.3" class="st9" width="216.7" height="328.3"/>
			<rect x="2546.1" y="2906.6" class="st9" width="247" height="121"/>
			<rect x="2818.6" y="2984.3" class="st9" width="160.6" height="43.3"/>
			<rect x="3066" y="2906.6" class="st9" width="261.2" height="121"/>
			<g>
				
					<rect x="3170.1" y="2589.9" transform="matrix(-1 -1.224647e-16 1.224647e-16 -1 6665.1567 5617.46)" class="st9" width="325" height="437.7"/>
				
					<rect x="3161.7" y="2573.1" transform="matrix(-1 -1.224647e-16 1.224647e-16 -1 6675.7212 5162.9829)" class="st9" width="352.3" height="16.8"/>
				
					<rect x="3337.9" y="2527.5" transform="matrix(-1 -1.224647e-16 1.224647e-16 -1 6818.5337 5143.7964)" class="st9" width="142.8" height="88.7"/>
				
					<rect x="3267.2" y="2527.5" transform="matrix(-1 -1.224647e-16 1.224647e-16 -1 6558.4326 5109.021)" class="st9" width="24" height="54"/>
				
					<rect x="3216.9" y="2527.5" transform="matrix(-1 -1.224647e-16 1.224647e-16 -1 6460.1025 5109.021)" class="st9" width="26.4" height="54"/>
			</g>
			<g>
				
					<rect x="3718.5" y="2388.4" transform="matrix(-1 -1.224647e-16 1.224647e-16 -1 7694.1504 5415.9248)" class="st9" width="257.2" height="639.2"/>
				
					<rect x="3711.1" y="2377.4" transform="matrix(-1 -1.224647e-16 1.224647e-16 -1 7694.1504 4772.7852)" class="st9" width="271.9" height="18.1"/>
				
					<rect x="3727.1" y="2354.2" transform="matrix(-1 -1.224647e-16 1.224647e-16 -1 7694.1504 4794.3403)" class="st9" width="239.9" height="85.9"/>
				
					<rect x="3853.7" y="2319.1" transform="matrix(-1 -1.224647e-16 1.224647e-16 -1 7802.3447 4732.0171)" class="st9" width="95" height="93.8"/>
				<polygon class="st9" points="3893.7,2345.5 3948.7,2345.5 3948.7,2296.1 3909.2,2296.1 				"/>
				
					<rect x="3921.2" y="2255.1" transform="matrix(-1 -1.224647e-16 1.224647e-16 -1 7847.7031 4620.3159)" class="st9" width="5.3" height="110"/>
				<ellipse class="st9" cx="3923.9" cy="2249.4" rx="4.8" ry="5.7"/>
			</g>
			<rect x="3940.5" y="2763.7" class="st9" width="115.1" height="263.9"/>
			<rect x="3612.6" y="2635" class="st9" width="131.3" height="392.5"/>
			<polygon class="st9" points="3678.3,3027.6 3493.3,3027.6 3493.3,2817.6 3649.4,2886.8 			"/>
			<rect x="4017.8" y="2913.5" class="st9" width="282.4" height="114"/>
			<rect x="4195.9" y="2572.4" class="st9" width="164.1" height="455.2"/>
			<rect x="4321.6" y="2942.6" class="st9" width="271.8" height="85"/>
			<rect x="4187.5" y="2564.1" class="st9" width="180" height="14.9"/>
			<rect x="4334.4" y="2499.8" class="st9" width="3.6" height="91.7"/>
			<rect x="4310.4" y="2511.4" class="st9" width="3.6" height="73.6"/>
			<polygon class="st9" points="4420.7,2743.9 4347.6,2743.9 4347.6,2952.4 4451.9,2952.4 			"/>
		</g>
	</g>
</g>
<g>
	<linearGradient id="SVGID_5_" gradientUnits="userSpaceOnUse" x1="6911.1904" y1="1528.3831" x2="6919.1904" y2="1712.3831">
		<stop  offset="0" style="stop-color:#9B2373"/>
		<stop  offset="1" style="stop-color:#67156D"/>
	</linearGradient>
	<path class="st11" d="M6906,1473L6906,1473c-35.3,0-64-28.7-64-64v0c0-35.3,28.7-64,64-64l0,0c35.3,0,64,28.7,64,64v0
		C6970,1444.3,6941.3,1473,6906,1473z"/>
	<linearGradient id="SVGID_6_" gradientUnits="userSpaceOnUse" x1="6770.1963" y1="1534.5132" x2="6778.1963" y2="1718.5132">
		<stop  offset="0" style="stop-color:#9B2373"/>
		<stop  offset="1" style="stop-color:#67156D"/>
	</linearGradient>
	<path class="st12" d="M6771,1617L6771,1617c-35.3,0-64-28.7-64-64v0c0-35.3,28.7-64,64-64l0,0c35.3,0,64,28.7,64,64v0
		C6835,1588.3,6806.3,1617,6771,1617z"/>
	<linearGradient id="SVGID_7_" gradientUnits="userSpaceOnUse" x1="6300.4756" y1="1554.9358" x2="6308.4756" y2="1738.9358">
		<stop  offset="0" style="stop-color:#9B2373"/>
		<stop  offset="1" style="stop-color:#67156D"/>
	</linearGradient>
	<path class="st13" d="M6351,1921h-70c-5,0-9-4-9-9l0,0c0-5,4-9,9-9h70c5,0,9,4,9,9l0,0C6360,1917,6356,1921,6351,1921z"/>
	<linearGradient id="SVGID_8_" gradientUnits="userSpaceOnUse" x1="6898.9526" y1="1528.915" x2="6906.9526" y2="1712.915">
		<stop  offset="0" style="stop-color:#9B2373"/>
		<stop  offset="1" style="stop-color:#67156D"/>
	</linearGradient>
	<path class="st14" d="M6906,1755L6906,1755c-35.3,0-64-28.7-64-64v0c0-35.3,28.7-64,64-64l0,0c35.3,0,64,28.7,64,64v0
		C6970,1726.3,6941.3,1755,6906,1755z"/>
	<linearGradient id="SVGID_9_" gradientUnits="userSpaceOnUse" x1="7046.6738" y1="1522.4924" x2="7054.6738" y2="1706.4924">
		<stop  offset="0" style="stop-color:#9B2373"/>
		<stop  offset="1" style="stop-color:#67156D"/>
	</linearGradient>
	<path class="st15" d="M7048,1617L7048,1617c-35.3,0-64-28.7-64-64v0c0-35.3,28.7-64,64-64l0,0c35.3,0,64,28.7,64,64v0
		C7112,1588.3,7083.3,1617,7048,1617z"/>
	<linearGradient id="SVGID_10_" gradientUnits="userSpaceOnUse" x1="5734.2104" y1="1579.556" x2="5742.2104" y2="1763.556">
		<stop  offset="0" style="stop-color:#9B2373"/>
		<stop  offset="1" style="stop-color:#67156D"/>
	</linearGradient>
	<path class="st16" d="M5784,1423.5v49.7c0,6.2-2.8,12.1-7.6,16.1l-34.6,28.7c-7.7,6.4-19,6.4-26.7,0l-34.6-28.7
		c-4.8-4-7.6-9.9-7.6-16.1v-49.7c0-17.4,14.1-31.5,31.5-31.5h48C5769.9,1392,5784,1406.1,5784,1423.5z"/>
	<linearGradient id="SVGID_11_" gradientUnits="userSpaceOnUse" x1="5823.1182" y1="1575.6906" x2="5831.1182" y2="1759.6906">
		<stop  offset="0" style="stop-color:#9B2373"/>
		<stop  offset="1" style="stop-color:#67156D"/>
	</linearGradient>
	<path class="st17" d="M5855.5,1609h-49.7c-6.2,0-12.1-2.8-16.1-7.6l-28.7-34.6c-6.4-7.7-6.4-19,0-26.7l28.7-34.6
		c4-4.8,9.9-7.6,16.1-7.6h49.7c17.4,0,31.5,14.1,31.5,31.5v48C5887,1594.9,5872.9,1609,5855.5,1609z"/>
	<linearGradient id="SVGID_12_" gradientUnits="userSpaceOnUse" x1="5636.165" y1="1583.819" x2="5644.165" y2="1767.819">
		<stop  offset="0" style="stop-color:#9B2373"/>
		<stop  offset="1" style="stop-color:#67156D"/>
	</linearGradient>
	<path class="st18" d="M5601.5,1498h49.7c6.2,0,12.1,2.8,16.1,7.6l28.7,34.6c6.4,7.7,6.4,19,0,26.7l-28.7,34.6
		c-4,4.8-9.9,7.6-16.1,7.6h-49.7c-17.4,0-31.5-14.1-31.5-31.5v-48C5570,1512.1,5584.1,1498,5601.5,1498z"/>
	<linearGradient id="SVGID_13_" gradientUnits="userSpaceOnUse" x1="5725.4199" y1="1579.9382" x2="5733.4199" y2="1763.9382">
		<stop  offset="0" style="stop-color:#9B2373"/>
		<stop  offset="1" style="stop-color:#67156D"/>
	</linearGradient>
	<path class="st19" d="M5673,1675.5v-49.7c0-6.2,2.8-12.1,7.6-16.1l34.6-28.7c7.7-6.4,19-6.4,26.7,0l34.6,28.7
		c4.8,4,7.6,9.9,7.6,16.1v49.7c0,17.4-14.1,31.5-31.5,31.5h-48C5687.1,1707,5673,1692.9,5673,1675.5z"/>
</g>
<g>
	<rect x="9505" y="308.2" class="st20" width="82" height="69"/>
	<polygon class="st21" points="9339,383.1 9413.9,372.3 9401,302.2 9326.1,313 	"/>
	<polygon class="st22" points="9172.9,389 9240.8,367.3 9215.1,296.1 9147.2,317.8 	"/>
	<rect x="8977" y="308" class="st23" width="82" height="69"/>
	<polygon class="st24" points="9131.7,528 9157.5,456.7 9089.6,435 9063.8,506.3 	"/>
	<polygon class="st25" points="9234.4,661 9247.3,590.9 9172.3,580 9159.4,650.1 	"/>
	<rect x="9255" y="725" class="st26" width="82" height="69"/>
</g>
<rect x="9841" y="741" class="st24" width="165" height="165"/>
<linearGradient id="SVGID_14_" gradientUnits="userSpaceOnUse" x1="9841" y1="1059.5" x2="10006" y2="1059.5">
	<stop  offset="0" style="stop-color:#208AAD"/>
	<stop  offset="0.5109" style="stop-color:#10458A"/>
	<stop  offset="1" style="stop-color:#000067"/>
</linearGradient>
<rect x="9841" y="977" class="st27" width="165" height="165"/>
<rect x="9635" y="741" class="st25" width="165" height="165"/>
<rect x="10037" y="741" class="st23" width="165" height="165"/>
<radialGradient id="SVGID_15_" cx="10383" cy="1341" r="1480.4377" gradientUnits="userSpaceOnUse">
	<stop  offset="0" style="stop-color:#208AAD"/>
	<stop  offset="0.3094" style="stop-color:#10458A"/>
	<stop  offset="1" style="stop-color:#071E76"/>
</radialGradient>
<path class="st28" d="M11565.8,2152.4c-29.8,137.8-109.2,263.9-243.4,318.4c-140.4,57-286,15.5-407.8-65.9
	c-99-66.2-192-151.1-261.6-249.6c-10.3-14.6-18.9-30.3-25.9-46.7c-10.6-24.6-24.7-47.2-41.7-67.4c-49.3-58.5-123-95.9-205.4-96.4
	c-0.6,0-1.3,0-1.9,0c-78.9,0-150,33.7-199.5,87.6c-20.2,21.9-36.8,47.2-48.9,74.8c-6,13.7-12.9,27-21.2,39.4
	c-7.5,11.2-15.3,22.3-23.8,33.2c-91.6,118.2-220.6,231.6-360.5,287.4c-135.4,54-287.7,35.9-398.6-62.5
	c-96.8-85.8-136-218.3-149.1-342.9c-11.3-107.4-10.3-229,47.9-324.1c76-124.1,231.6-150.6,364-171.5
	c92.3-14.6,177.4-14.4,270.8-14.4h991.9c112.6,0,217.4-1.1,328.6,16.3c144.4,22.6,305.7,59.1,370.1,206
	C11601.1,1891.1,11587.9,2030.2,11565.8,2152.4z"/>
<g>
	<defs>
		<path id="SVGID_16_" d="M11565.8,2152.4c-29.8,137.8-109.2,263.9-243.4,318.4c-140.4,57-286,15.5-407.8-65.9
			c-99-66.2-192-151.1-261.6-249.6c-10.3-14.6-18.9-30.3-25.9-46.7c-10.6-24.6-24.7-47.2-41.7-67.4c-49.3-58.5-123-95.9-205.4-96.4
			c-0.6,0-1.3,0-1.9,0c-78.9,0-150,33.7-199.5,87.6c-20.2,21.9-36.8,47.2-48.9,74.8c-6,13.7-12.9,27-21.2,39.4
			c-7.5,11.2-15.3,22.3-23.8,33.2c-91.6,118.2-220.6,231.6-360.5,287.4c-135.4,54-287.7,35.9-398.6-62.5
			c-96.8-85.8-136-218.3-149.1-342.9c-11.3-107.4-10.3-229,47.9-324.1c76-124.1,231.6-150.6,364-171.5
			c92.3-14.6,177.4-14.4,270.8-14.4h991.9c112.6,0,217.4-1.1,328.6,16.3c144.4,22.6,305.7,59.1,370.1,206
			C11601.1,1891.1,11587.9,2030.2,11565.8,2152.4z"/>
	</defs>
	<clipPath id="SVGID_17_">
		<use xlink:href="#SVGID_16_"  style="overflow:visible;"/>
	</clipPath>
	<g class="st29">
		<rect x="9139.2" y="265.6" class="st30" width="2477.8" height="2477.8"/>
		<rect x="9510.9" y="637.3" class="st30" width="1734.4" height="1734.4"/>
		<rect x="9771.1" y="897.4" class="st30" width="1214.1" height="1214.1"/>
		<rect x="9953.2" y="1079.5" class="st30" width="849.9" height="849.9"/>
		<rect x="10080.7" y="1207" class="st30" width="594.9" height="594.9"/>
		<polyline class="st30" points="10378.1,2743.4 10378.1,2371.7 10378.1,2111.5 10378.1,1929.4 10378.1,1801.9 10378.1,1504.5 
			10378.1,1207.1 10378.1,1079.6 10378.1,897.4 10378.1,637.3 10378.1,265.6 		"/>
		<polyline class="st30" points="10378.1,2743.4 10378.1,2371.7 10378.1,2111.5 10378.1,1929.4 10378.1,1801.9 10378.1,1504.5 
			10378.1,1207.1 10378.1,1079.6 10378.1,897.4 10378.1,637.3 10378.1,265.6 		"/>
		<polyline class="st30" points="10710.1,2743.4 10610.5,2371.7 10540.8,2111.5 10492,1929.4 10457.8,1801.9 10378.1,1504.5 
			10298.4,1207.1 10264.3,1079.6 10215.5,897.4 10145.7,637.3 10046.2,265.6 		"/>
		<polyline class="st30" points="11093.4,2743.4 10878.8,2371.7 10728.6,2111.5 10623.4,1929.4 10549.9,1801.9 10378.1,1504.5 
			10206.4,1207.1 10132.8,1079.6 10027.6,897.4 9877.5,637.3 9662.9,265.6 		"/>
		<polyline class="st30" points="11617,2743.4 11245.3,2371.7 10985.2,2111.5 10803.1,1929.4 10675.6,1801.9 10378.1,1504.5 
			10080.7,1207.1 9953.2,1079.6 9771.1,897.4 9510.9,637.3 9139.2,265.6 		"/>
		<polyline class="st30" points="11617,2219.7 11245.3,2005.1 10985.2,1855 10803.1,1749.8 10675.6,1676.2 10378.1,1504.5 
			10080.7,1332.7 9953.2,1259.2 9771.1,1154 9510.9,1003.8 9139.2,789.2 		"/>
		<polyline class="st30" points="11617,1836.4 11245.3,1736.9 10985.2,1667.1 10803.1,1618.3 10675.6,1584.2 10378.1,1504.5 
			10080.7,1424.8 9953.2,1390.6 9771.1,1341.8 9510.9,1272.1 9139.2,1172.5 		"/>
		<polyline class="st30" points="11617,1504.5 11245.3,1504.5 10985.2,1504.5 10803.1,1504.5 10675.6,1504.5 10378.1,1504.5 
			10080.7,1504.5 9953.2,1504.5 9771.1,1504.5 9510.9,1504.5 9139.2,1504.5 		"/>
		<polyline class="st30" points="11617,1172.5 11245.3,1272.1 10985.2,1341.8 10803.1,1390.6 10675.6,1424.8 10378.1,1504.5 
			10080.7,1584.2 9953.2,1618.3 9771.1,1667.1 9510.9,1736.9 9139.2,1836.4 		"/>
		<polyline class="st30" points="11617,789.2 11245.3,1003.8 10985.2,1154 10803.1,1259.2 10675.6,1332.7 10378.1,1504.5 
			10080.7,1676.2 9953.2,1749.8 9771.1,1855 9510.9,2005.1 9139.2,2219.7 		"/>
		<polyline class="st30" points="11617,265.6 11245.3,637.3 10985.2,897.4 10803.1,1079.6 10675.6,1207.1 10378.1,1504.5 
			10080.7,1801.9 9953.2,1929.4 9771.1,2111.5 9510.9,2371.7 9139.2,2743.4 		"/>
		<polyline class="st30" points="11093.4,265.6 10878.8,637.3 10728.6,897.4 10623.4,1079.6 10549.9,1207.1 10378.1,1504.5 
			10206.4,1801.9 10132.8,1929.4 10027.6,2111.5 9877.5,2371.7 9662.9,2743.4 		"/>
		<polyline class="st30" points="10710.1,265.6 10610.5,637.3 10540.8,897.4 10492,1079.6 10457.8,1207.1 10378.1,1504.5 
			10298.4,1801.9 10264.3,1929.4 10215.5,2111.5 10145.7,2371.7 10046.2,2743.4 		"/>
	</g>
</g>
<radialGradient id="SVGID_18_" cx="10450.2227" cy="2320.8511" r="1054.8135" gradientUnits="userSpaceOnUse">
	<stop  offset="0" style="stop-color:#208AAD;stop-opacity:0.7"/>
	<stop  offset="0.3094" style="stop-color:#10458A;stop-opacity:0.5"/>
	<stop  offset="1" style="stop-color:#000067;stop-opacity:0.2"/>
</radialGradient>
<path class="st31" d="M11565.8,2152.4c-29.8,137.8-109.2,263.9-243.4,318.4c-140.4,57-286,15.5-407.8-65.9
	c-99-66.2-192-151.1-261.6-249.6c-10.3-14.6-18.9-30.3-25.9-46.7c-10.6-24.6-24.7-47.2-41.7-67.4c-49.3-58.5-123-95.9-205.4-96.4
	c-0.6,0-1.3,0-1.9,0c-78.9,0-150,33.7-199.5,87.6c-20.2,21.9-36.8,47.2-48.9,74.8c-6,13.7-12.9,27-21.2,39.4
	c-7.5,11.2-15.3,22.3-23.8,33.2c-91.6,118.2-220.6,231.6-360.5,287.4c-135.4,54-287.7,35.9-398.6-62.5
	c-96.8-85.8-136-218.3-149.1-342.9c-11.3-107.4-10.3-229,47.9-324.1c76-124.1,231.6-150.6,364-171.5
	c92.3-14.6,177.4-14.4,270.8-14.4h991.9c112.6,0,217.4-1.1,328.6,16.3c144.4,22.6,305.7,59.1,370.1,206
	C11601.1,1891.1,11587.9,2030.2,11565.8,2152.4z"/>
</svg>
