<?xml version="1.0" encoding="utf-8"?>
<!-- Generator: Adobe Illustrator 21.0.0, SVG Export Plug-In . SVG Version: 6.00 Build 0)  -->
<svg version="1.1" id="Layer_1" xmlns="http://www.w3.org/2000/svg" xmlns:xlink="http://www.w3.org/1999/xlink" x="0px" y="0px"
	 viewBox="0 0 4000 2153" style="enable-background:new 0 0 4000 2153;" xml:space="preserve">
<style type="text/css">
	.st0{fill:url(#SVGID_1_);}
	.st1{fill:url(#SVGID_2_);}
	.st2{fill:url(#SVGID_3_);}
	.st3{fill:url(#SVGID_4_);}
	.st4{fill:url(#SVGID_5_);}
	.st5{fill:url(#SVGID_6_);}
	.st6{fill:url(#SVGID_7_);}
	.st7{fill:url(#SVGID_8_);}
	.st8{fill:url(#SVGID_9_);}
	.st9{fill:url(#SVGID_10_);}
</style>
<linearGradient id="SVGID_1_" gradientUnits="userSpaceOnUse" x1="1885.2504" y1="-55.1142" x2="1911.7644" y2="1509.2126">
	<stop  offset="0" style="stop-color:#249C9D"/>
	<stop  offset="1" style="stop-color:#23637A"/>
</linearGradient>
<path class="st0" d="M3482,1459.1c-2.4,225.1-38.7,723-394.3,620.4c-110.1-31.8-129.6-152.1-160.8-248.7
	c-44.1-136.7-83.3-281.1-186.8-386.8c-115.7-118.3-199-75.3-348.4-74.1c-141.1,1.2-284.2-8.2-426.2-8
	c-221.5,0.3-445.6-9.6-664.2-6.6c-309.7,4.2-347.3,350.7-438.6,575.8c-57.9,142.7-153.5,185.5-307.7,127.4
	c-123.9-46.7-162.1-155.5-186.6-280.1c-56-284.7-22.9-586.2,30.9-868.5c26.9-140.9,67.1-283.9,122.6-416.3
	c32.6-77.8,92.2-152.5,104.4-237c18-56.6,61.6-85.9,113.2-107.6C1507.2,30,2315,30,3082.7,148.9c51.2,22.5,97.5,47.4,113.2,107.6
	c21.9,152.1,136.7,310.6,180.2,462.2C3443.5,953.7,3484.7,1214.7,3482,1459.1z"/>
<g>
	<linearGradient id="SVGID_2_" gradientUnits="userSpaceOnUse" x1="2890.7905" y1="580.4073" x2="2904.0476" y2="885.3185">
		<stop  offset="0" style="stop-color:#9B2373"/>
		<stop  offset="1" style="stop-color:#67156D"/>
	</linearGradient>
	<path class="st1" d="M2882.2,488.6L2882.2,488.6c-58.6,0-106.1-47.5-106.1-106.1v0c0-58.6,47.5-106.1,106.1-106.1l0,0
		c58.6,0,106.1,47.5,106.1,106.1v0C2988.2,441.1,2940.8,488.6,2882.2,488.6z"/>
	<linearGradient id="SVGID_3_" gradientUnits="userSpaceOnUse" x1="2657.1453" y1="590.5659" x2="2670.4023" y2="895.477">
		<stop  offset="0" style="stop-color:#9B2373"/>
		<stop  offset="1" style="stop-color:#67156D"/>
	</linearGradient>
	<path class="st2" d="M2658.5,727.3L2658.5,727.3c-58.6,0-106.1-47.5-106.1-106.1v0c0-58.6,47.5-106.1,106.1-106.1h0
		c58.6,0,106.1,47.5,106.1,106.1v0C2764.5,679.8,2717.1,727.3,2658.5,727.3z"/>
	<linearGradient id="SVGID_4_" gradientUnits="userSpaceOnUse" x1="1878.3882" y1="615.8828" x2="1891.8362" y2="925.1875">
		<stop  offset="0" style="stop-color:#9B2373"/>
		<stop  offset="1" style="stop-color:#67156D"/>
	</linearGradient>
	<path class="st3" d="M1968.4,1231h-127.8c-5,0-9-4-9-9v-11.8c0-5,4-9,9-9h127.8c5,0,9,4,9,9v11.8
		C1977.4,1227,1973.4,1231,1968.4,1231z"/>
	<linearGradient id="SVGID_5_" gradientUnits="userSpaceOnUse" x1="2870.5112" y1="581.2891" x2="2883.7681" y2="886.2003">
		<stop  offset="0" style="stop-color:#9B2373"/>
		<stop  offset="1" style="stop-color:#67156D"/>
	</linearGradient>
	<path class="st4" d="M2882.2,955.9L2882.2,955.9c-58.6,0-106.1-47.5-106.1-106.1v0c0-58.6,47.5-106.1,106.1-106.1l0,0
		c58.6,0,106.1,47.5,106.1,106.1v0C2988.2,908.5,2940.8,955.9,2882.2,955.9z"/>
	<linearGradient id="SVGID_6_" gradientUnits="userSpaceOnUse" x1="3115.303" y1="570.6459" x2="3128.5601" y2="875.5571">
		<stop  offset="0" style="stop-color:#9B2373"/>
		<stop  offset="1" style="stop-color:#67156D"/>
	</linearGradient>
	<path class="st5" d="M3117.5,727.3L3117.5,727.3c-58.6,0-106.1-47.5-106.1-106.1v0c0-58.6,47.5-106.1,106.1-106.1h0
		c58.6,0,106.1,47.5,106.1,106.1v0C3223.6,679.8,3176.1,727.3,3117.5,727.3z"/>
	<linearGradient id="SVGID_7_" gradientUnits="userSpaceOnUse" x1="940.3864" y1="665.2075" x2="953.6434" y2="970.1187">
		<stop  offset="0" style="stop-color:#9B2373"/>
		<stop  offset="1" style="stop-color:#67156D"/>
	</linearGradient>
	<path class="st6" d="M1022.9,406.6v82.3c0,10.3-4.6,20.1-12.5,26.7l-57.3,47.5c-12.8,10.6-31.4,10.6-44.3,0l-57.3-47.5
		c-7.9-6.6-12.5-16.4-12.5-26.7v-82.3c0-28.8,23.4-52.2,52.2-52.2h79.5C999.5,354.4,1022.9,377.8,1022.9,406.6z"/>
	<linearGradient id="SVGID_8_" gradientUnits="userSpaceOnUse" x1="1087.7175" y1="658.8019" x2="1100.9745" y2="963.713">
		<stop  offset="0" style="stop-color:#9B2373"/>
		<stop  offset="1" style="stop-color:#67156D"/>
	</linearGradient>
	<path class="st7" d="M1141.4,714h-82.3c-10.3,0-20.1-4.6-26.7-12.5l-47.5-57.3c-10.6-12.8-10.6-31.4,0-44.3l47.5-57.3
		c6.6-7.9,16.4-12.5,26.7-12.5h82.3c28.8,0,52.2,23.4,52.2,52.2v79.5C1193.6,690.6,1170.2,714,1141.4,714z"/>
	<linearGradient id="SVGID_9_" gradientUnits="userSpaceOnUse" x1="777.9129" y1="672.2716" x2="791.1699" y2="977.1827">
		<stop  offset="0" style="stop-color:#9B2373"/>
		<stop  offset="1" style="stop-color:#67156D"/>
	</linearGradient>
	<path class="st8" d="M720.5,530.1h82.3c10.3,0,20.1,4.6,26.7,12.5l47.5,57.3c10.6,12.8,10.6,31.4,0,44.3l-47.5,57.3
		c-6.6,7.9-16.4,12.5-26.7,12.5h-82.3c-28.8,0-52.2-23.4-52.2-52.2v-79.5C668.3,553.4,691.6,530.1,720.5,530.1z"/>
	<linearGradient id="SVGID_10_" gradientUnits="userSpaceOnUse" x1="925.8193" y1="665.8409" x2="939.0763" y2="970.7521">
		<stop  offset="0" style="stop-color:#9B2373"/>
		<stop  offset="1" style="stop-color:#67156D"/>
	</linearGradient>
	<path class="st9" d="M839,824.2v-82.3c0-10.3,4.6-20.1,12.5-26.7l57.3-47.5c12.8-10.6,31.4-10.6,44.3,0l57.3,47.5
		c7.9,6.6,12.5,16.4,12.5,26.7v82.3c0,28.8-23.4,52.2-52.2,52.2h-79.5C862.3,876.4,839,853,839,824.2z"/>
</g>
</svg>
