<?xml version="1.0" encoding="utf-8"?>
<!-- Generator: Adobe Illustrator 21.0.0, SVG Export Plug-In . SVG Version: 6.00 Build 0)  -->
<svg version="1.1" id="Layer_1" xmlns="http://www.w3.org/2000/svg" xmlns:xlink="http://www.w3.org/1999/xlink" x="0px" y="0px"
	 viewBox="0 0 4000 2153" style="enable-background:new 0 0 4000 2153;" xml:space="preserve">
<style type="text/css">
	.st0{fill:url(#SVGID_1_);}
	.st1{clip-path:url(#SVGID_3_);}
	.st2{fill:none;stroke:#208AAD;stroke-width:6;stroke-miterlimit:10;}
</style>
<radialGradient id="SVGID_1_" cx="1965.4542" cy="371.7589" r="2100.623" gradientUnits="userSpaceOnUse">
	<stop  offset="0" style="stop-color:#208AAD"/>
	<stop  offset="0.3094" style="stop-color:#10458A"/>
	<stop  offset="1" style="stop-color:#000067"/>
</radialGradient>
<path class="st0" d="M3643.8,1523.1c-42.3,195.5-154.9,374.4-345.3,451.7c-199.2,80.9-405.8,22.1-578.6-93.5
	c-140.5-93.9-272.4-214.4-371.3-354.2c-14.6-20.7-26.7-43-36.8-66.2c-15-34.8-35-67-59.2-95.6c-70-83-174.5-136-291.4-136.9
	c-0.9,0-1.8,0-2.8,0c-112,0-212.8,47.9-283,124.3c-28.6,31.1-52.2,66.9-69.3,106.1c-8.5,19.4-18.4,38.3-30.1,55.9
	c-10.6,15.9-21.8,31.6-33.8,47.1c-130,167.7-313,328.7-511.5,407.8c-192.1,76.6-408.3,50.9-565.6-88.7
	c-137.3-121.8-192.9-309.8-211.5-486.6c-16-152.4-14.7-324.9,67.9-459.8C429.4,758.5,650.1,720.9,838,691.2
	c130.9-20.7,251.8-20.4,384.2-20.4h1407.4c159.8,0,308.5-1.6,466.3,23.2c204.9,32.1,433.7,83.8,525.2,292.4
	C3693.8,1152.4,3675.2,1349.6,3643.8,1523.1z"/>
<g>
	<defs>
		<path id="SVGID_2_" d="M3643.8,1523.1c-42.3,195.5-154.9,374.4-345.3,451.7c-199.2,80.9-405.8,22.1-578.6-93.5
			c-140.5-93.9-272.4-214.4-371.3-354.2c-14.6-20.7-26.7-43-36.8-66.2c-15-34.8-35-67-59.2-95.6c-70-83-174.5-136-291.4-136.9
			c-0.9,0-1.8,0-2.8,0c-112,0-212.8,47.9-283,124.3c-28.6,31.1-52.2,66.9-69.3,106.1c-8.5,19.4-18.4,38.3-30.1,55.9
			c-10.6,15.9-21.8,31.6-33.8,47.1c-130,167.7-313,328.7-511.5,407.8c-192.1,76.6-408.3,50.9-565.6-88.7
			c-137.3-121.8-192.9-309.8-211.5-486.6c-16-152.4-14.7-324.9,67.9-459.8C429.4,758.5,650.1,720.9,838,691.2
			c130.9-20.7,251.8-20.4,384.2-20.4h1407.4c159.8,0,308.5-1.6,466.3,23.2c204.9,32.1,433.7,83.8,525.2,292.4
			C3693.8,1152.4,3675.2,1349.6,3643.8,1523.1z"/>
	</defs>
	<clipPath id="SVGID_3_">
		<use xlink:href="#SVGID_2_"  style="overflow:visible;"/>
	</clipPath>
	<g class="st1">
		<rect x="200.7" y="-1154.1" class="st2" width="3515.7" height="3515.7"/>
		<rect x="728" y="-626.8" class="st2" width="2461" height="2461"/>
		<rect x="1097.2" y="-257.6" class="st2" width="1722.7" height="1722.7"/>
		<rect x="1355.6" y="0.8" class="st2" width="1205.9" height="1205.9"/>
		<rect x="1536.5" y="181.7" class="st2" width="844.1" height="844.1"/>
		<polyline class="st2" points="1958.5,2361.6 1958.5,1834.2 1958.5,1465.1 1958.5,1206.7 1958.5,1025.8 1958.5,603.7 1958.5,181.7 
			1958.5,0.8 1958.5,-257.6 1958.5,-626.8 1958.5,-1154.1 		"/>
		<polyline class="st2" points="1958.5,2361.6 1958.5,1834.2 1958.5,1465.1 1958.5,1206.7 1958.5,1025.8 1958.5,603.7 1958.5,181.7 
			1958.5,0.8 1958.5,-257.6 1958.5,-626.8 1958.5,-1154.1 		"/>
		<polyline class="st2" points="2429.5,2361.6 2288.3,1834.2 2189.3,1465.1 2120.1,1206.7 2071.6,1025.8 1958.5,603.7 1845.4,181.7 
			1797,0.8 1727.7,-257.6 1628.8,-626.8 1487.5,-1154.1 		"/>
		<polyline class="st2" points="2973.4,2361.6 2668.9,1834.2 2455.9,1465.1 2306.6,1206.7 2202.2,1025.8 1958.5,603.7 1714.9,181.7 
			1610.4,0.8 1461.2,-257.6 1248.1,-626.8 943.7,-1154.1 		"/>
		<polyline class="st2" points="3716.4,2361.6 3189,1834.2 2819.9,1465.1 2561.5,1206.7 2380.6,1025.8 1958.5,603.7 1536.5,181.7 
			1355.6,0.8 1097.2,-257.6 728,-626.8 200.7,-1154.1 		"/>
		<polyline class="st2" points="3716.4,1618.6 3189,1314.1 2819.9,1101.1 2561.5,951.8 2380.6,847.4 1958.5,603.7 1536.5,360 
			1355.6,255.6 1097.2,106.4 728,-106.7 200.7,-411.1 		"/>
		<polyline class="st2" points="3716.4,1074.7 3189,933.5 2819.9,834.5 2561.5,765.3 2380.6,716.8 1958.5,603.7 1536.5,490.6 
			1355.6,442.2 1097.2,372.9 728,274 200.7,132.7 		"/>
		<polyline class="st2" points="3716.4,603.7 3189,603.7 2819.9,603.7 2561.5,603.7 2380.6,603.7 1958.5,603.7 1536.5,603.7 
			1355.6,603.7 1097.2,603.7 728,603.7 200.7,603.7 		"/>
		<polyline class="st2" points="3716.4,132.7 3189,274 2819.9,372.9 2561.5,442.2 2380.6,490.6 1958.5,603.7 1536.5,716.8 
			1355.6,765.3 1097.2,834.5 728,933.5 200.7,1074.7 		"/>
		<polyline class="st2" points="3716.4,-411.1 3189,-106.7 2819.9,106.4 2561.5,255.6 2380.6,360 1958.5,603.7 1536.5,847.4 
			1355.6,951.8 1097.2,1101.1 728,1314.1 200.7,1618.6 		"/>
		<polyline class="st2" points="3716.4,-1154.1 3189,-626.8 2819.9,-257.6 2561.5,0.8 2380.6,181.7 1958.5,603.7 1536.5,1025.8 
			1355.6,1206.7 1097.2,1465.1 728,1834.2 200.7,2361.6 		"/>
		<polyline class="st2" points="2973.4,-1154.1 2668.9,-626.8 2455.9,-257.6 2306.6,0.8 2202.2,181.7 1958.5,603.7 1714.9,1025.8 
			1610.4,1206.7 1461.2,1465.1 1248.1,1834.2 943.7,2361.6 		"/>
		<polyline class="st2" points="2429.5,-1154.1 2288.3,-626.8 2189.3,-257.6 2120.1,0.8 2071.6,181.7 1958.5,603.7 1845.4,1025.8 
			1797,1206.7 1727.7,1465.1 1628.8,1834.2 1487.5,2361.6 		"/>
	</g>
</g>
</svg>
