<?xml version="1.0" encoding="utf-8"?>
<!-- Generator: Adobe Illustrator 21.0.0, SVG Export Plug-In . SVG Version: 6.00 Build 0)  -->
<svg version="1.1" id="Layer_2" xmlns="http://www.w3.org/2000/svg" xmlns:xlink="http://www.w3.org/1999/xlink" x="0px" y="0px"
	 viewBox="0 0 4000 2153" style="enable-background:new 0 0 4000 2153;" xml:space="preserve">
<style type="text/css">
	.st0{fill:url(#SVGID_1_);}
	.st1{clip-path:url(#SVGID_2_);}
	.st2{fill:none;stroke:#208AAD;stroke-width:6;stroke-miterlimit:10;}
</style>
<radialGradient id="SVGID_1_" cx="1965.4542" cy="372.6956" r="2100.623" gradientUnits="userSpaceOnUse">
	<stop  offset="0" style="stop-color:#208AAD"/>
	<stop  offset="0.3094" style="stop-color:#10458A"/>
	<stop  offset="1" style="stop-color:#071E76"/>
</radialGradient>
<path class="st0" d="M3643.8,1524.1c-42.3,195.5-154.9,374.4-345.3,451.7c-199.2,80.9-405.8,22.1-578.6-93.5
	c-140.5-93.9-272.4-214.4-371.3-354.2c-14.6-20.7-26.7-43-36.8-66.2c-15-34.8-35-67-59.2-95.6c-70-83-174.5-136-291.4-136.9
	c-0.9,0-1.8,0-2.8,0c-112,0-212.8,47.9-283,124.3c-28.6,31.1-52.2,66.9-69.3,106.1c-8.5,19.4-18.4,38.3-30.1,55.9
	c-10.6,15.9-21.8,31.6-33.8,47.1c-130,167.7-313,328.7-511.5,407.8c-192.1,76.6-408.3,50.9-565.6-88.7
	c-137.3-121.8-192.9-309.8-211.5-486.6c-16-152.4-14.7-324.9,67.9-459.8C429.4,759.4,650.1,721.8,838,692.2
	c130.9-20.7,251.8-20.4,384.2-20.4h1407.4c159.8,0,308.5-1.6,466.3,23.2c204.9,32.1,433.7,83.8,525.2,292.4
	C3693.8,1153.3,3675.2,1350.6,3643.8,1524.1z"/>
<g>
	<defs>
		<path id="SVGID_5_" d="M3643.8,1524.1c-42.3,195.5-154.9,374.4-345.3,451.7c-199.2,80.9-405.8,22.1-578.6-93.5
			c-140.5-93.9-272.4-214.4-371.3-354.2c-14.6-20.7-26.7-43-36.8-66.2c-15-34.8-35-67-59.2-95.6c-70-83-174.5-136-291.4-136.9
			c-0.9,0-1.8,0-2.8,0c-112,0-212.8,47.9-283,124.3c-28.6,31.1-52.2,66.9-69.3,106.1c-8.5,19.4-18.4,38.3-30.1,55.9
			c-10.6,15.9-21.8,31.6-33.8,47.1c-130,167.7-313,328.7-511.5,407.8c-192.1,76.6-408.3,50.9-565.6-88.7
			c-137.3-121.8-192.9-309.8-211.5-486.6c-16-152.4-14.7-324.9,67.9-459.8C429.4,759.4,650.1,721.8,838,692.2
			c130.9-20.7,251.8-20.4,384.2-20.4h1407.4c159.8,0,308.5-1.6,466.3,23.2c204.9,32.1,433.7,83.8,525.2,292.4
			C3693.8,1153.3,3675.2,1350.6,3643.8,1524.1z"/>
	</defs>
	<clipPath id="SVGID_2_">
		<use xlink:href="#SVGID_5_"  style="overflow:visible;"/>
	</clipPath>
	<g class="st1">
		<rect x="200.7" y="-1153.2" class="st2" width="3515.7" height="3515.7"/>
		<rect x="728" y="-625.8" class="st2" width="2461" height="2461"/>
		<rect x="1097.2" y="-256.7" class="st2" width="1722.7" height="1722.7"/>
		<rect x="1355.6" y="1.7" class="st2" width="1205.9" height="1205.9"/>
		<rect x="1536.5" y="182.6" class="st2" width="844.1" height="844.1"/>
		<polyline class="st2" points="1958.5,2362.5 1958.5,1835.2 1958.5,1466 1958.5,1207.6 1958.5,1026.7 1958.5,604.7 1958.5,182.6 
			1958.5,1.7 1958.5,-256.7 1958.5,-625.8 1958.5,-1153.2 		"/>
		<polyline class="st2" points="1958.5,2362.5 1958.5,1835.2 1958.5,1466 1958.5,1207.6 1958.5,1026.7 1958.5,604.7 1958.5,182.6 
			1958.5,1.7 1958.5,-256.7 1958.5,-625.8 1958.5,-1153.2 		"/>
		<polyline class="st2" points="2429.5,2362.5 2288.3,1835.2 2189.3,1466 2120.1,1207.6 2071.6,1026.7 1958.5,604.7 1845.4,182.6 
			1797,1.7 1727.7,-256.7 1628.8,-625.8 1487.5,-1153.2 		"/>
		<polyline class="st2" points="2973.4,2362.5 2668.9,1835.2 2455.9,1466 2306.6,1207.6 2202.2,1026.7 1958.5,604.7 1714.9,182.6 
			1610.4,1.7 1461.2,-256.7 1248.1,-625.8 943.7,-1153.2 		"/>
		<polyline class="st2" points="3716.4,2362.5 3189,1835.2 2819.9,1466 2561.5,1207.6 2380.6,1026.7 1958.5,604.7 1536.5,182.6 
			1355.6,1.7 1097.2,-256.7 728,-625.8 200.7,-1153.2 		"/>
		<polyline class="st2" points="3716.4,1619.5 3189,1315.1 2819.9,1102 2561.5,952.8 2380.6,848.3 1958.5,604.7 1536.5,361 
			1355.6,256.6 1097.2,107.3 728,-105.7 200.7,-410.2 		"/>
		<polyline class="st2" points="3716.4,1075.7 3189,934.4 2819.9,835.5 2561.5,766.2 2380.6,717.8 1958.5,604.7 1536.5,491.6 
			1355.6,443.1 1097.2,373.9 728,274.9 200.7,133.7 		"/>
		<polyline class="st2" points="3716.4,604.7 3189,604.7 2819.9,604.7 2561.5,604.7 2380.6,604.7 1958.5,604.7 1536.5,604.7 
			1355.6,604.7 1097.2,604.7 728,604.7 200.7,604.7 		"/>
		<polyline class="st2" points="3716.4,133.7 3189,274.9 2819.9,373.9 2561.5,443.1 2380.6,491.6 1958.5,604.7 1536.5,717.8 
			1355.6,766.2 1097.2,835.5 728,934.4 200.7,1075.7 		"/>
		<polyline class="st2" points="3716.4,-410.2 3189,-105.7 2819.9,107.3 2561.5,256.6 2380.6,361 1958.5,604.7 1536.5,848.3 
			1355.6,952.8 1097.2,1102 728,1315.1 200.7,1619.5 		"/>
		<polyline class="st2" points="3716.4,-1153.2 3189,-625.8 2819.9,-256.7 2561.5,1.7 2380.6,182.6 1958.5,604.7 1536.5,1026.7 
			1355.6,1207.6 1097.2,1466 728,1835.2 200.7,2362.5 		"/>
		<polyline class="st2" points="2973.4,-1153.2 2668.9,-625.8 2455.9,-256.7 2306.6,1.7 2202.2,182.6 1958.5,604.7 1714.9,1026.7 
			1610.4,1207.6 1461.2,1466 1248.1,1835.2 943.7,2362.5 		"/>
		<polyline class="st2" points="2429.5,-1153.2 2288.3,-625.8 2189.3,-256.7 2120.1,1.7 2071.6,182.6 1958.5,604.7 1845.4,1026.7 
			1797,1207.6 1727.7,1466 1628.8,1835.2 1487.5,2362.5 		"/>
	</g>
</g>
</svg>
